G75*
G70*
%OFA0B0*%
%FSLAX24Y24*%
%IPPOS*%
%LPD*%
%AMOC8*
5,1,8,0,0,1.08239X$1,22.5*
%
%ADD10C,0.0000*%
D10*
X000139Y003669D02*
X000139Y014693D01*
X042659Y014693D01*
X042659Y003669D01*
X000139Y003669D01*
X026005Y008511D02*
X026007Y008538D01*
X026013Y008565D01*
X026022Y008591D01*
X026035Y008615D01*
X026051Y008638D01*
X026070Y008657D01*
X026092Y008674D01*
X026116Y008688D01*
X026141Y008698D01*
X026168Y008705D01*
X026195Y008708D01*
X026223Y008707D01*
X026250Y008702D01*
X026276Y008694D01*
X026300Y008682D01*
X026323Y008666D01*
X026344Y008648D01*
X026361Y008627D01*
X026376Y008603D01*
X026387Y008578D01*
X026395Y008552D01*
X026399Y008525D01*
X026399Y008497D01*
X026395Y008470D01*
X026387Y008444D01*
X026376Y008419D01*
X026361Y008395D01*
X026344Y008374D01*
X026323Y008356D01*
X026301Y008340D01*
X026276Y008328D01*
X026250Y008320D01*
X026223Y008315D01*
X026195Y008314D01*
X026168Y008317D01*
X026141Y008324D01*
X026116Y008334D01*
X026092Y008348D01*
X026070Y008365D01*
X026051Y008384D01*
X026035Y008407D01*
X026022Y008431D01*
X026013Y008457D01*
X026007Y008484D01*
X026005Y008511D01*
X026005Y009850D02*
X026007Y009877D01*
X026013Y009904D01*
X026022Y009930D01*
X026035Y009954D01*
X026051Y009977D01*
X026070Y009996D01*
X026092Y010013D01*
X026116Y010027D01*
X026141Y010037D01*
X026168Y010044D01*
X026195Y010047D01*
X026223Y010046D01*
X026250Y010041D01*
X026276Y010033D01*
X026300Y010021D01*
X026323Y010005D01*
X026344Y009987D01*
X026361Y009966D01*
X026376Y009942D01*
X026387Y009917D01*
X026395Y009891D01*
X026399Y009864D01*
X026399Y009836D01*
X026395Y009809D01*
X026387Y009783D01*
X026376Y009758D01*
X026361Y009734D01*
X026344Y009713D01*
X026323Y009695D01*
X026301Y009679D01*
X026276Y009667D01*
X026250Y009659D01*
X026223Y009654D01*
X026195Y009653D01*
X026168Y009656D01*
X026141Y009663D01*
X026116Y009673D01*
X026092Y009687D01*
X026070Y009704D01*
X026051Y009723D01*
X026035Y009746D01*
X026022Y009770D01*
X026013Y009796D01*
X026007Y009823D01*
X026005Y009850D01*
X030966Y009850D02*
X030968Y009877D01*
X030974Y009904D01*
X030983Y009930D01*
X030996Y009954D01*
X031012Y009977D01*
X031031Y009996D01*
X031053Y010013D01*
X031077Y010027D01*
X031102Y010037D01*
X031129Y010044D01*
X031156Y010047D01*
X031184Y010046D01*
X031211Y010041D01*
X031237Y010033D01*
X031261Y010021D01*
X031284Y010005D01*
X031305Y009987D01*
X031322Y009966D01*
X031337Y009942D01*
X031348Y009917D01*
X031356Y009891D01*
X031360Y009864D01*
X031360Y009836D01*
X031356Y009809D01*
X031348Y009783D01*
X031337Y009758D01*
X031322Y009734D01*
X031305Y009713D01*
X031284Y009695D01*
X031262Y009679D01*
X031237Y009667D01*
X031211Y009659D01*
X031184Y009654D01*
X031156Y009653D01*
X031129Y009656D01*
X031102Y009663D01*
X031077Y009673D01*
X031053Y009687D01*
X031031Y009704D01*
X031012Y009723D01*
X030996Y009746D01*
X030983Y009770D01*
X030974Y009796D01*
X030968Y009823D01*
X030966Y009850D01*
X030966Y008511D02*
X030968Y008538D01*
X030974Y008565D01*
X030983Y008591D01*
X030996Y008615D01*
X031012Y008638D01*
X031031Y008657D01*
X031053Y008674D01*
X031077Y008688D01*
X031102Y008698D01*
X031129Y008705D01*
X031156Y008708D01*
X031184Y008707D01*
X031211Y008702D01*
X031237Y008694D01*
X031261Y008682D01*
X031284Y008666D01*
X031305Y008648D01*
X031322Y008627D01*
X031337Y008603D01*
X031348Y008578D01*
X031356Y008552D01*
X031360Y008525D01*
X031360Y008497D01*
X031356Y008470D01*
X031348Y008444D01*
X031337Y008419D01*
X031322Y008395D01*
X031305Y008374D01*
X031284Y008356D01*
X031262Y008340D01*
X031237Y008328D01*
X031211Y008320D01*
X031184Y008315D01*
X031156Y008314D01*
X031129Y008317D01*
X031102Y008324D01*
X031077Y008334D01*
X031053Y008348D01*
X031031Y008365D01*
X031012Y008384D01*
X030996Y008407D01*
X030983Y008431D01*
X030974Y008457D01*
X030968Y008484D01*
X030966Y008511D01*
M02*
