G75*
G70*
%OFA0B0*%
%FSLAX24Y24*%
%IPPOS*%
%LPD*%
%AMOC8*
5,1,8,0,0,1.08239X$1,22.5*
%
%ADD10C,0.0000*%
%ADD11R,0.0500X0.0220*%
%ADD12R,0.0220X0.0500*%
%ADD13R,0.0512X0.0591*%
%ADD14R,0.0591X0.0512*%
%ADD15R,0.0394X0.0551*%
%ADD16R,0.0551X0.0394*%
%ADD17C,0.0520*%
%ADD18R,0.0800X0.0260*%
%ADD19C,0.0594*%
%ADD20R,0.0594X0.0594*%
%ADD21OC8,0.1000*%
%ADD22R,0.0515X0.0515*%
%ADD23OC8,0.0520*%
%ADD24C,0.0554*%
%ADD25R,0.0660X0.0660*%
%ADD26C,0.0660*%
%ADD27C,0.0397*%
%ADD28C,0.0760*%
%ADD29C,0.0600*%
%ADD30R,0.0217X0.0472*%
%ADD31C,0.0357*%
%ADD32C,0.0160*%
%ADD33C,0.0436*%
%ADD34C,0.0240*%
%ADD35C,0.0650*%
%ADD36C,0.0400*%
D10*
X000139Y003669D02*
X000139Y014693D01*
X042659Y014693D01*
X042659Y003669D01*
X000139Y003669D01*
X026005Y008511D02*
X026007Y008538D01*
X026013Y008565D01*
X026022Y008591D01*
X026035Y008615D01*
X026051Y008638D01*
X026070Y008657D01*
X026092Y008674D01*
X026116Y008688D01*
X026141Y008698D01*
X026168Y008705D01*
X026195Y008708D01*
X026223Y008707D01*
X026250Y008702D01*
X026276Y008694D01*
X026300Y008682D01*
X026323Y008666D01*
X026344Y008648D01*
X026361Y008627D01*
X026376Y008603D01*
X026387Y008578D01*
X026395Y008552D01*
X026399Y008525D01*
X026399Y008497D01*
X026395Y008470D01*
X026387Y008444D01*
X026376Y008419D01*
X026361Y008395D01*
X026344Y008374D01*
X026323Y008356D01*
X026301Y008340D01*
X026276Y008328D01*
X026250Y008320D01*
X026223Y008315D01*
X026195Y008314D01*
X026168Y008317D01*
X026141Y008324D01*
X026116Y008334D01*
X026092Y008348D01*
X026070Y008365D01*
X026051Y008384D01*
X026035Y008407D01*
X026022Y008431D01*
X026013Y008457D01*
X026007Y008484D01*
X026005Y008511D01*
X026005Y009850D02*
X026007Y009877D01*
X026013Y009904D01*
X026022Y009930D01*
X026035Y009954D01*
X026051Y009977D01*
X026070Y009996D01*
X026092Y010013D01*
X026116Y010027D01*
X026141Y010037D01*
X026168Y010044D01*
X026195Y010047D01*
X026223Y010046D01*
X026250Y010041D01*
X026276Y010033D01*
X026300Y010021D01*
X026323Y010005D01*
X026344Y009987D01*
X026361Y009966D01*
X026376Y009942D01*
X026387Y009917D01*
X026395Y009891D01*
X026399Y009864D01*
X026399Y009836D01*
X026395Y009809D01*
X026387Y009783D01*
X026376Y009758D01*
X026361Y009734D01*
X026344Y009713D01*
X026323Y009695D01*
X026301Y009679D01*
X026276Y009667D01*
X026250Y009659D01*
X026223Y009654D01*
X026195Y009653D01*
X026168Y009656D01*
X026141Y009663D01*
X026116Y009673D01*
X026092Y009687D01*
X026070Y009704D01*
X026051Y009723D01*
X026035Y009746D01*
X026022Y009770D01*
X026013Y009796D01*
X026007Y009823D01*
X026005Y009850D01*
X030966Y009850D02*
X030968Y009877D01*
X030974Y009904D01*
X030983Y009930D01*
X030996Y009954D01*
X031012Y009977D01*
X031031Y009996D01*
X031053Y010013D01*
X031077Y010027D01*
X031102Y010037D01*
X031129Y010044D01*
X031156Y010047D01*
X031184Y010046D01*
X031211Y010041D01*
X031237Y010033D01*
X031261Y010021D01*
X031284Y010005D01*
X031305Y009987D01*
X031322Y009966D01*
X031337Y009942D01*
X031348Y009917D01*
X031356Y009891D01*
X031360Y009864D01*
X031360Y009836D01*
X031356Y009809D01*
X031348Y009783D01*
X031337Y009758D01*
X031322Y009734D01*
X031305Y009713D01*
X031284Y009695D01*
X031262Y009679D01*
X031237Y009667D01*
X031211Y009659D01*
X031184Y009654D01*
X031156Y009653D01*
X031129Y009656D01*
X031102Y009663D01*
X031077Y009673D01*
X031053Y009687D01*
X031031Y009704D01*
X031012Y009723D01*
X030996Y009746D01*
X030983Y009770D01*
X030974Y009796D01*
X030968Y009823D01*
X030966Y009850D01*
X030966Y008511D02*
X030968Y008538D01*
X030974Y008565D01*
X030983Y008591D01*
X030996Y008615D01*
X031012Y008638D01*
X031031Y008657D01*
X031053Y008674D01*
X031077Y008688D01*
X031102Y008698D01*
X031129Y008705D01*
X031156Y008708D01*
X031184Y008707D01*
X031211Y008702D01*
X031237Y008694D01*
X031261Y008682D01*
X031284Y008666D01*
X031305Y008648D01*
X031322Y008627D01*
X031337Y008603D01*
X031348Y008578D01*
X031356Y008552D01*
X031360Y008525D01*
X031360Y008497D01*
X031356Y008470D01*
X031348Y008444D01*
X031337Y008419D01*
X031322Y008395D01*
X031305Y008374D01*
X031284Y008356D01*
X031262Y008340D01*
X031237Y008328D01*
X031211Y008320D01*
X031184Y008315D01*
X031156Y008314D01*
X031129Y008317D01*
X031102Y008324D01*
X031077Y008334D01*
X031053Y008348D01*
X031031Y008365D01*
X031012Y008384D01*
X030996Y008407D01*
X030983Y008431D01*
X030974Y008457D01*
X030968Y008484D01*
X030966Y008511D01*
D11*
X018633Y009220D03*
X018633Y009535D03*
X018633Y009850D03*
X018633Y010165D03*
X018633Y010480D03*
X018633Y010795D03*
X018633Y011110D03*
X018633Y011425D03*
X015253Y011425D03*
X015253Y011110D03*
X015253Y010795D03*
X015253Y010480D03*
X015253Y010165D03*
X015253Y009850D03*
X015253Y009535D03*
X015253Y009220D03*
D12*
X015840Y008632D03*
X016155Y008632D03*
X016470Y008632D03*
X016785Y008632D03*
X017100Y008632D03*
X017415Y008632D03*
X017730Y008632D03*
X018045Y008632D03*
X018045Y012012D03*
X017730Y012012D03*
X017415Y012012D03*
X017100Y012012D03*
X016785Y012012D03*
X016470Y012012D03*
X016155Y012012D03*
X015840Y012012D03*
D13*
X020635Y012256D03*
X021305Y012256D03*
X021305Y011456D03*
X020635Y011456D03*
X020635Y013055D03*
X021305Y013055D03*
X012285Y010244D03*
X011616Y010244D03*
X005006Y010996D03*
X004336Y010996D03*
X004336Y011803D03*
X005006Y011803D03*
X004805Y009378D03*
X004135Y009378D03*
X012600Y006661D03*
X013269Y006661D03*
X014175Y006661D03*
X014844Y006661D03*
X014844Y005866D03*
X014175Y005866D03*
X013269Y005866D03*
X012600Y005866D03*
X011694Y006189D03*
X011025Y006189D03*
X020080Y009181D03*
X020750Y009181D03*
X036576Y011582D03*
X037246Y011582D03*
X039234Y006720D03*
X039903Y006720D03*
D14*
X038919Y008177D03*
X038919Y008846D03*
X035620Y010842D03*
X035620Y011511D03*
X030037Y012464D03*
X030037Y013133D03*
X029100Y011602D03*
X029100Y010933D03*
X022210Y011110D03*
X022210Y011779D03*
X022210Y012901D03*
X022210Y013570D03*
X013880Y011956D03*
X013880Y011287D03*
X011950Y011523D03*
X011950Y012193D03*
X002305Y011681D03*
X002305Y011011D03*
X010883Y008362D03*
X012580Y008059D03*
X012580Y008728D03*
X010883Y007693D03*
X008277Y007507D03*
X007478Y007193D03*
X006679Y007193D03*
X005872Y007193D03*
X005872Y006523D03*
X006679Y006523D03*
X007478Y006523D03*
X008277Y006838D03*
X009462Y006169D03*
X009462Y005500D03*
X003726Y006519D03*
X003726Y007189D03*
X022187Y009437D03*
X022187Y010106D03*
D15*
X014096Y008551D03*
X013348Y008551D03*
X013348Y009259D03*
X012974Y010126D03*
X013722Y010126D03*
X013722Y007685D03*
X008407Y005917D03*
X008033Y005051D03*
X008781Y005051D03*
D16*
X007462Y005067D03*
X006596Y005441D03*
X007462Y005815D03*
X027502Y011452D03*
X028368Y011826D03*
X028368Y011078D03*
X029100Y012511D03*
X028234Y012885D03*
X029100Y013259D03*
D17*
X039509Y009568D03*
X014672Y012133D03*
X012772Y012133D03*
D18*
X023368Y012332D03*
X023368Y012832D03*
X023368Y013332D03*
X026123Y013332D03*
X026123Y012832D03*
X026123Y012332D03*
X026123Y011832D03*
X023368Y011832D03*
D19*
X033301Y010181D03*
X034301Y010181D03*
X034301Y011181D03*
X034301Y009181D03*
X033301Y009181D03*
X033301Y008181D03*
X034301Y008181D03*
X034301Y007181D03*
X033301Y007181D03*
D20*
X033301Y011181D03*
D21*
X041687Y010165D03*
X041675Y008590D03*
X041675Y007015D03*
X041675Y005441D03*
X009982Y013315D03*
X008604Y013315D03*
X007226Y013315D03*
X001517Y009574D03*
D22*
X019265Y006074D03*
D23*
X008801Y008181D03*
X007801Y009181D03*
X008801Y010181D03*
X036360Y009346D03*
X037738Y009346D03*
X039509Y010368D03*
X037738Y013346D03*
X036360Y013346D03*
D24*
X040020Y012724D02*
X040574Y012724D01*
X040574Y011937D02*
X040020Y011937D01*
X002779Y007212D02*
X002224Y007212D01*
X002224Y006425D02*
X002779Y006425D01*
X002779Y005637D02*
X002224Y005637D01*
D25*
X003242Y012378D03*
D26*
X003242Y011378D03*
X003242Y010378D03*
X003242Y009378D03*
X006242Y009378D03*
X006242Y010378D03*
X006242Y011378D03*
X006242Y012378D03*
D27*
X002062Y012478D02*
X001665Y012478D01*
X001665Y012970D02*
X002062Y012970D01*
D28*
X027502Y009181D03*
X028683Y009181D03*
X029864Y009181D03*
D29*
X024455Y010071D02*
X023855Y010071D01*
X021306Y010071D02*
X020706Y010071D01*
X020706Y008291D02*
X021306Y008291D01*
X023855Y008291D02*
X024455Y008291D01*
D30*
X005183Y007417D03*
X004809Y007417D03*
X004435Y007417D03*
X004435Y006393D03*
X004809Y006393D03*
X005183Y006393D03*
D31*
X006320Y005913D03*
X005848Y005637D03*
X004076Y005834D03*
X009194Y006819D03*
X010966Y005441D03*
X011557Y005441D03*
X010376Y005165D03*
X015297Y005244D03*
X015691Y005637D03*
X017069Y006622D03*
X016675Y007015D03*
X015494Y006819D03*
X017659Y007606D03*
X018643Y008315D03*
X018643Y008787D03*
X017974Y009299D03*
X016084Y009378D03*
X016084Y009889D03*
X017462Y009968D03*
X016084Y010401D03*
X017265Y010756D03*
X016872Y011149D03*
X016281Y011149D03*
X014509Y010756D03*
X014509Y009771D03*
X012817Y009456D03*
X011754Y009417D03*
X011439Y008905D03*
X010415Y008826D03*
X011439Y008393D03*
X014903Y008590D03*
X014903Y008000D03*
X020612Y007409D03*
X024194Y006582D03*
X024864Y007527D03*
X021911Y005165D03*
X032620Y007015D03*
X038328Y008196D03*
X038328Y008984D03*
X040691Y007803D03*
X038525Y006425D03*
X038919Y006031D03*
X038919Y005441D03*
X038919Y004850D03*
X032029Y010756D03*
X026793Y011464D03*
X024155Y011543D03*
X024155Y012133D03*
X024155Y012724D03*
X027305Y013118D03*
X027895Y013511D03*
X020021Y012724D03*
X019431Y012133D03*
X018919Y012133D03*
X018368Y012842D03*
X016675Y012842D03*
X016281Y013118D03*
X011124Y011582D03*
X009391Y012015D03*
X008880Y012133D03*
X008525Y011740D03*
X007029Y010952D03*
X007423Y009771D03*
X011045Y010283D03*
X004076Y007803D03*
X002305Y008000D03*
X019431Y010913D03*
X019628Y010362D03*
X037935Y011937D03*
D32*
X037935Y011740D01*
X037777Y011582D01*
X037246Y011582D01*
X036576Y011582D02*
X035887Y011582D01*
X035620Y011511D01*
X033301Y011181D02*
X033242Y011181D01*
X032620Y010559D01*
X032620Y009181D01*
X032305Y008866D01*
X032305Y008078D01*
X031714Y007488D01*
X026202Y007488D01*
X025572Y006858D01*
X024509Y006858D01*
X024352Y007015D01*
X021202Y007015D01*
X020887Y006700D01*
X020336Y006700D01*
X019667Y007370D01*
X017895Y007370D01*
X017659Y007606D01*
X017730Y008126D02*
X018210Y007645D01*
X019824Y007645D01*
X020454Y006976D01*
X020769Y006976D01*
X021084Y007291D01*
X024470Y007291D01*
X024628Y007133D01*
X025454Y007133D01*
X026084Y007763D01*
X031596Y007763D01*
X032029Y008196D01*
X032029Y010756D01*
X030848Y011740D02*
X030848Y012724D01*
X030439Y013133D01*
X030037Y013133D01*
X029911Y013259D01*
X029100Y013259D01*
X029076Y013283D01*
X029076Y013315D01*
X029053Y013291D01*
X028706Y013291D01*
X028486Y013511D01*
X027895Y013511D01*
X026911Y013511D01*
X026714Y013315D01*
X026123Y013315D01*
X027305Y013118D02*
X027502Y012921D01*
X028198Y012921D01*
X028234Y012885D01*
X028880Y012330D02*
X029076Y012527D01*
X029084Y012527D01*
X029100Y012511D01*
X029990Y012511D01*
X030037Y012464D01*
X028880Y012330D02*
X027108Y012330D01*
X026610Y011832D01*
X026123Y011832D01*
X026793Y011464D02*
X026805Y011452D01*
X027502Y011452D01*
X028368Y011826D02*
X028679Y011826D01*
X029100Y011602D01*
X028368Y011078D02*
X028242Y010952D01*
X026714Y010952D01*
X026320Y011346D01*
X025927Y011346D01*
X025454Y010874D01*
X025454Y007921D01*
X025061Y007527D01*
X024864Y007527D01*
X025691Y006582D02*
X026320Y007212D01*
X031832Y007212D01*
X032580Y007960D01*
X032580Y008748D01*
X033013Y009181D01*
X033301Y009181D01*
X033301Y008181D02*
X033234Y008181D01*
X031990Y006937D01*
X026439Y006937D01*
X025809Y006307D01*
X024785Y006307D01*
X024352Y005874D01*
X023131Y005874D01*
X022541Y006464D01*
X021439Y006464D01*
X021124Y006149D01*
X020100Y006149D01*
X019431Y006819D01*
X018446Y006819D01*
X017856Y006228D01*
X017462Y006228D01*
X017069Y006622D01*
X016675Y006425D02*
X017620Y005480D01*
X020848Y005480D01*
X021557Y006189D01*
X022423Y006189D01*
X023013Y005598D01*
X024509Y005598D01*
X024943Y006031D01*
X025927Y006031D01*
X026557Y006661D01*
X032620Y006661D01*
X032620Y007015D01*
X032781Y006661D02*
X033301Y007181D01*
X032781Y006661D02*
X032620Y006661D01*
X037817Y004929D02*
X038919Y006031D01*
X038525Y006425D02*
X038820Y006720D01*
X039234Y006720D01*
X038919Y005441D02*
X038131Y004653D01*
X023171Y004653D01*
X022187Y005637D01*
X021793Y005637D01*
X021084Y004929D01*
X017383Y004929D01*
X016006Y006307D01*
X016006Y007330D01*
X016155Y007480D01*
X016155Y008632D01*
X015840Y008632D02*
X015840Y007559D01*
X015494Y007212D01*
X009588Y007212D01*
X009194Y006819D01*
X008801Y007015D02*
X008801Y005070D01*
X008781Y005051D01*
X008033Y005051D02*
X007998Y005067D01*
X007462Y005067D01*
X006596Y005441D02*
X006596Y005913D01*
X006320Y005913D01*
X006596Y005913D02*
X006596Y006441D01*
X006679Y006523D01*
X006635Y006480D01*
X005872Y006448D02*
X005848Y006425D01*
X005817Y006425D01*
X005183Y007059D01*
X005183Y007417D01*
X004809Y007417D02*
X004809Y008259D01*
X004864Y008315D01*
X005336Y008708D02*
X005848Y008196D01*
X006635Y008196D01*
X007226Y008787D01*
X007226Y009574D01*
X007423Y009771D01*
X006950Y008905D02*
X006517Y008472D01*
X006045Y008472D01*
X005139Y009378D01*
X004805Y009378D01*
X004135Y009378D02*
X003242Y009378D01*
X003407Y008708D02*
X002698Y008000D01*
X002305Y008000D01*
X003880Y007606D02*
X003880Y007425D01*
X003887Y007417D01*
X003856Y007385D01*
X003726Y007189D01*
X004435Y007417D02*
X004435Y007641D01*
X004273Y007803D01*
X004076Y007803D01*
X003880Y007606D01*
X004809Y006685D02*
X005183Y007059D01*
X005872Y007193D02*
X005872Y007779D01*
X005651Y007803D01*
X006458Y007783D02*
X006632Y007786D01*
X006632Y007215D01*
X006655Y007193D01*
X006679Y007193D01*
X007478Y007193D02*
X007620Y007193D01*
X007620Y007015D01*
X008277Y007015D01*
X008277Y006838D01*
X008277Y006027D01*
X008407Y005917D01*
X007478Y005830D02*
X007478Y006523D01*
X007423Y006468D01*
X007478Y005830D02*
X007462Y005815D01*
X005848Y005637D02*
X005651Y005441D01*
X005454Y005441D01*
X005183Y005712D01*
X005183Y006393D01*
X004809Y006393D02*
X004809Y006685D01*
X004809Y006393D02*
X004809Y005693D01*
X004435Y006193D02*
X004076Y005834D01*
X003726Y006074D02*
X003486Y005834D01*
X003726Y006074D02*
X003726Y006519D01*
X004435Y006393D02*
X004435Y006193D01*
X005750Y006523D02*
X005872Y006523D01*
X005872Y006448D01*
X008210Y007378D02*
X008210Y007606D01*
X007817Y008000D01*
X007620Y007803D02*
X006632Y007786D01*
X008210Y007378D02*
X008277Y007507D01*
X008801Y007015D02*
X009273Y007488D01*
X009864Y007488D01*
X010100Y007724D01*
X010100Y008472D01*
X009982Y008590D01*
X009982Y008984D01*
X010218Y009220D01*
X011163Y009220D01*
X011360Y009417D01*
X011754Y009417D01*
X012147Y009574D02*
X011478Y010244D01*
X011439Y010244D01*
X011439Y010283D01*
X011045Y010283D01*
X011478Y010244D02*
X011616Y010244D01*
X011588Y010244D01*
X011616Y010244D02*
X011616Y010303D01*
X012285Y010244D02*
X012423Y010303D01*
X012423Y008885D01*
X012580Y008728D01*
X012679Y008728D01*
X013210Y009259D01*
X013348Y009259D01*
X012817Y009456D02*
X012817Y009653D01*
X012974Y009811D01*
X012974Y010126D01*
X014509Y010244D02*
X014549Y010244D01*
X014785Y010480D01*
X015253Y010480D01*
X015572Y010480D01*
X015691Y010362D01*
X015691Y009968D01*
X015572Y009850D01*
X015253Y009850D01*
X014903Y010165D02*
X014509Y009771D01*
X014509Y008393D01*
X014903Y008000D01*
X015297Y007606D02*
X015494Y007803D01*
X015494Y008787D01*
X015253Y009028D01*
X015253Y009220D01*
X014864Y009535D02*
X014785Y009456D01*
X014785Y008708D01*
X014903Y008590D01*
X016470Y008632D02*
X016470Y007401D01*
X016281Y007212D01*
X016281Y006425D01*
X017502Y005204D01*
X020966Y005204D01*
X021675Y005913D01*
X022305Y005913D01*
X023289Y004929D01*
X037817Y004929D01*
X038328Y008196D02*
X038757Y008196D01*
X038919Y008177D01*
X038919Y008846D02*
X038466Y008846D01*
X038328Y008984D01*
X037738Y009346D02*
X037738Y009378D01*
X025691Y006582D02*
X024194Y006582D01*
X023761Y006149D01*
X023250Y006149D01*
X022659Y006740D01*
X021320Y006740D01*
X021006Y006425D01*
X020218Y006425D01*
X019549Y007094D01*
X017580Y007094D01*
X016785Y007889D01*
X016785Y008632D01*
X017100Y008632D02*
X017100Y008952D01*
X016872Y009181D01*
X016281Y009181D01*
X016084Y009378D01*
X016517Y009456D02*
X016084Y009889D01*
X016084Y010401D02*
X016754Y009732D01*
X017108Y009732D01*
X017265Y009574D01*
X017659Y009574D01*
X017935Y009850D01*
X018633Y009850D01*
X018633Y009535D02*
X018210Y009535D01*
X017974Y009299D01*
X017415Y009031D02*
X016990Y009456D01*
X016517Y009456D01*
X017415Y009031D02*
X017415Y008632D01*
X017730Y008632D02*
X017730Y008126D01*
X018045Y008204D02*
X018328Y007921D01*
X020100Y007921D01*
X020612Y007409D01*
X018045Y008204D02*
X018045Y008632D01*
X018643Y008787D02*
X018643Y009209D01*
X018633Y009220D01*
X020021Y009378D02*
X020080Y009319D01*
X020080Y009181D01*
X020021Y009378D02*
X020021Y010559D01*
X019667Y010913D01*
X019431Y010913D01*
X019234Y011110D01*
X018633Y011110D01*
X018633Y010795D02*
X018092Y010795D01*
X017659Y010362D01*
X017069Y010362D01*
X016281Y011149D01*
X015887Y011346D02*
X015887Y010952D01*
X016084Y010756D01*
X016281Y010756D01*
X017029Y010007D01*
X017423Y010007D01*
X017462Y009968D01*
X018633Y010165D02*
X019194Y010165D01*
X019234Y010126D01*
X019628Y010362D02*
X019549Y010480D01*
X018633Y010480D01*
X018328Y011425D02*
X017659Y010756D01*
X017265Y010756D01*
X016872Y011149D02*
X016990Y011267D01*
X017777Y011267D01*
X018045Y011535D01*
X018045Y012012D01*
X018045Y012519D01*
X018368Y012842D01*
X018171Y013236D02*
X017730Y012795D01*
X017730Y012012D01*
X017730Y011614D01*
X017659Y011543D01*
X016084Y011543D01*
X015887Y011346D01*
X015263Y011435D02*
X015253Y011425D01*
X015179Y011425D01*
X015179Y012330D01*
X014903Y012606D01*
X013481Y012606D01*
X013402Y012601D01*
X013239Y012601D01*
X012772Y012133D01*
X012009Y012133D01*
X011950Y012193D01*
X011675Y013236D02*
X010454Y012015D01*
X009391Y012015D01*
X009155Y012409D02*
X008880Y012133D01*
X009155Y012409D02*
X010454Y012409D01*
X011557Y013511D01*
X016675Y013511D01*
X017100Y013086D01*
X017100Y012012D01*
X016785Y012012D02*
X016785Y012732D01*
X016675Y012842D01*
X016470Y012535D02*
X016281Y012724D01*
X016281Y013118D01*
X016155Y012456D02*
X015376Y013236D01*
X011675Y013236D01*
X011793Y012960D02*
X010454Y011622D01*
X008801Y011622D01*
X008683Y011740D01*
X008525Y011740D01*
X008013Y011543D02*
X008013Y011937D01*
X008604Y012527D01*
X008604Y013315D01*
X011793Y012960D02*
X015257Y012960D01*
X015840Y012378D01*
X015840Y012012D01*
X015840Y012181D01*
X016155Y012012D02*
X016155Y012456D01*
X016470Y012535D02*
X016470Y012012D01*
X017415Y012012D02*
X017415Y012874D01*
X018053Y013511D01*
X020021Y013511D01*
X020439Y013094D01*
X020635Y013055D01*
X021222Y012972D02*
X021273Y012921D01*
X022187Y012921D01*
X022187Y012901D01*
X022210Y012901D01*
X022254Y012921D01*
X022580Y012921D01*
X022992Y013332D01*
X023368Y013332D01*
X023368Y012832D02*
X024047Y012832D01*
X024155Y012724D01*
X023958Y012330D02*
X023370Y012330D01*
X023368Y012332D02*
X021795Y012332D01*
X021718Y012256D01*
X021305Y012256D01*
X020635Y012256D02*
X020635Y012110D01*
X020490Y012256D01*
X019899Y012256D01*
X019628Y012527D01*
X018643Y012527D01*
X018446Y012330D01*
X018446Y011425D01*
X018633Y011425D01*
X018328Y011425D01*
X018919Y012133D02*
X020982Y010071D01*
X021006Y010071D01*
X022092Y010071D01*
X022187Y010165D01*
X022187Y010106D01*
X022521Y010106D01*
X022777Y010362D01*
X023171Y010362D01*
X023462Y010071D01*
X024155Y010071D01*
X022974Y009378D02*
X022915Y009437D01*
X022187Y009437D01*
X019431Y008590D02*
X019155Y008315D01*
X018643Y008315D01*
X015297Y007606D02*
X013801Y007606D01*
X013722Y007685D01*
X013525Y007488D01*
X011478Y007488D01*
X011273Y007693D01*
X010883Y007693D01*
X010868Y007783D01*
X010883Y008362D02*
X010915Y008393D01*
X011439Y008393D01*
X011557Y008393D01*
X011950Y008787D01*
X011950Y008984D01*
X012147Y009181D01*
X012147Y009574D01*
X011439Y008905D02*
X011281Y008905D01*
X011202Y008826D01*
X010415Y008826D01*
X008801Y008196D02*
X008407Y008590D01*
X008801Y008196D02*
X008801Y008181D01*
X006950Y008905D02*
X006950Y010874D01*
X007029Y010952D01*
X008013Y011543D02*
X008210Y011346D01*
X010572Y011346D01*
X010809Y011582D01*
X011124Y011582D01*
X013880Y011956D02*
X014057Y012133D01*
X014672Y012133D01*
X014672Y011380D01*
X014943Y011110D01*
X015253Y011110D01*
X015253Y010795D02*
X014549Y010795D01*
X014509Y010756D01*
X014903Y010165D02*
X015253Y010165D01*
X015253Y009535D02*
X014864Y009535D01*
X012580Y008728D02*
X012383Y008826D01*
X012443Y008885D01*
X013289Y008551D02*
X013289Y008354D01*
X012994Y008059D01*
X012580Y008059D01*
X013289Y008551D02*
X013348Y008551D01*
X016675Y007015D02*
X016675Y006425D01*
X015494Y006425D02*
X015494Y006819D01*
X015494Y006425D02*
X017265Y004653D01*
X021399Y004653D01*
X021911Y005165D01*
X015691Y005637D02*
X015462Y005866D01*
X014844Y005866D01*
X014872Y005866D01*
X014706Y005637D01*
X014844Y005866D02*
X014738Y006063D01*
X014706Y006031D01*
X014876Y006031D02*
X014844Y005866D01*
X014876Y006031D02*
X014903Y006031D01*
X012738Y005834D02*
X012738Y005728D01*
X012600Y005866D01*
X012569Y005834D01*
X011694Y006189D02*
X011694Y006759D01*
X011754Y006819D01*
X009982Y006819D02*
X009462Y006299D01*
X009462Y006169D01*
X009431Y006267D01*
X011025Y006189D02*
X011025Y005972D01*
X011557Y005441D01*
X010966Y005441D02*
X010769Y005637D01*
X009588Y005637D01*
X009462Y005511D01*
X009462Y005500D01*
X011025Y006169D02*
X011025Y006189D01*
X005336Y008708D02*
X003407Y008708D01*
X018171Y013236D02*
X019509Y013236D01*
X020021Y012724D01*
X021222Y012972D02*
X021305Y013055D01*
X023958Y012330D02*
X024155Y012133D01*
X023368Y011832D02*
X022315Y011832D01*
X022210Y011779D01*
X022171Y011740D01*
X021990Y011740D01*
X021706Y011456D01*
X021305Y011456D01*
X020635Y011456D02*
X020108Y011456D01*
X019431Y012133D01*
D33*
X026124Y010756D03*
X022974Y009771D03*
X022974Y008590D03*
X026832Y006110D03*
X026714Y005441D03*
X025139Y005441D03*
X014509Y005244D03*
X012935Y005244D03*
X009982Y006819D03*
X009588Y008000D03*
X008899Y009082D03*
X008013Y009968D03*
X009588Y010165D03*
X030848Y011740D03*
X038525Y007409D03*
D34*
X036754Y005441D01*
X026714Y005441D01*
X025139Y005441D01*
X026832Y006110D02*
X026990Y005952D01*
X036281Y005952D01*
X037738Y007409D01*
X037738Y009346D01*
X037738Y009378D02*
X037928Y009568D01*
X039509Y009568D01*
X040021Y009393D02*
X041356Y009393D01*
X041364Y009385D02*
X041675Y009385D01*
X041675Y008590D01*
X041675Y007795D01*
X041352Y007795D01*
X040895Y007338D01*
X040895Y006692D01*
X041352Y006235D01*
X041675Y006235D01*
X041675Y006221D01*
X041352Y006221D01*
X040895Y005764D01*
X040895Y005117D01*
X041352Y004661D01*
X041675Y004661D01*
X041675Y004189D01*
X000659Y004189D01*
X000659Y014173D01*
X041675Y014173D01*
X041675Y010945D01*
X041364Y010945D01*
X040907Y010488D01*
X040907Y009842D01*
X041364Y009385D01*
X041377Y009310D02*
X040955Y008888D01*
X040955Y008590D01*
X040955Y008292D01*
X041377Y007870D01*
X041675Y007870D01*
X041675Y008590D01*
X041675Y008590D01*
X040955Y008590D01*
X041675Y008590D01*
X041675Y008590D01*
X041675Y008590D01*
X041675Y009310D01*
X041377Y009310D01*
X041221Y009154D02*
X039859Y009154D01*
X039815Y009110D02*
X039617Y009028D01*
X039494Y009028D01*
X039494Y008534D01*
X039485Y008511D01*
X039494Y008488D01*
X039494Y007865D01*
X039452Y007762D01*
X039373Y007683D01*
X039270Y007641D01*
X038968Y007641D01*
X039023Y007508D01*
X039023Y007310D01*
X039017Y007295D01*
X039545Y007295D01*
X039648Y007253D01*
X039666Y007235D01*
X039895Y007235D01*
X039895Y006728D01*
X039911Y006728D01*
X039911Y007235D01*
X040188Y007235D01*
X040244Y007220D01*
X040294Y007191D01*
X040335Y007150D01*
X040364Y007100D01*
X040379Y007044D01*
X040379Y006728D01*
X039911Y006728D01*
X039911Y006712D01*
X039911Y006205D01*
X040188Y006205D01*
X040244Y006220D01*
X040294Y006249D01*
X040335Y006290D01*
X040364Y006340D01*
X040379Y006396D01*
X040379Y006712D01*
X039911Y006712D01*
X039895Y006712D01*
X039895Y006205D01*
X039666Y006205D01*
X039648Y006187D01*
X039545Y006145D01*
X039368Y006145D01*
X039377Y006122D01*
X039377Y005940D01*
X039308Y005771D01*
X039272Y005736D01*
X039308Y005700D01*
X039377Y005532D01*
X039377Y005349D01*
X039308Y005181D01*
X039179Y005052D01*
X039010Y004982D01*
X038970Y004982D01*
X038335Y004348D01*
X038203Y004293D01*
X023099Y004293D01*
X022967Y004348D01*
X022332Y004983D01*
X022300Y004905D01*
X022171Y004776D01*
X022002Y004707D01*
X021962Y004707D01*
X021603Y004348D01*
X021471Y004293D01*
X017194Y004293D01*
X017061Y004348D01*
X016055Y005354D01*
X015950Y005249D01*
X015782Y005179D01*
X015599Y005179D01*
X015431Y005249D01*
X015303Y005377D01*
X015259Y005333D01*
X015156Y005290D01*
X015077Y005290D01*
X015045Y005214D01*
X015007Y005176D01*
X015007Y005145D01*
X014931Y004962D01*
X014791Y004822D01*
X014608Y004746D01*
X014410Y004746D01*
X014227Y004822D01*
X014087Y004962D01*
X014012Y005145D01*
X014012Y005343D01*
X014015Y005350D01*
X013890Y005350D01*
X013834Y005365D01*
X013784Y005394D01*
X013743Y005435D01*
X013722Y005471D01*
X013701Y005435D01*
X013660Y005394D01*
X013610Y005365D01*
X013554Y005350D01*
X013429Y005350D01*
X013432Y005343D01*
X013432Y005145D01*
X013357Y004962D01*
X013217Y004822D01*
X013034Y004746D01*
X012836Y004746D01*
X012653Y004822D01*
X012513Y004962D01*
X012437Y005145D01*
X012437Y005176D01*
X012399Y005214D01*
X012367Y005290D01*
X012288Y005290D01*
X012185Y005333D01*
X012107Y005412D01*
X012064Y005515D01*
X012064Y005637D01*
X012006Y005613D01*
X011981Y005613D01*
X012015Y005532D01*
X012015Y005349D01*
X011945Y005181D01*
X011816Y005052D01*
X011648Y004982D01*
X011466Y004982D01*
X011297Y005052D01*
X011261Y005088D01*
X011226Y005052D01*
X011057Y004982D01*
X010875Y004982D01*
X010706Y005052D01*
X010578Y005181D01*
X010538Y005277D01*
X010037Y005277D01*
X010037Y005188D01*
X009995Y005085D01*
X009916Y005006D01*
X009813Y004964D01*
X009258Y004964D01*
X009258Y004720D01*
X009215Y004617D01*
X009137Y004538D01*
X009034Y004495D01*
X008529Y004495D01*
X008426Y004538D01*
X008365Y004599D01*
X008315Y004570D01*
X008259Y004555D01*
X008033Y004555D01*
X008033Y005051D01*
X008033Y005051D01*
X008033Y004555D01*
X007807Y004555D01*
X007751Y004570D01*
X007701Y004599D01*
X007660Y004640D01*
X007655Y004650D01*
X007462Y004650D01*
X007462Y005067D01*
X007462Y005067D01*
X007462Y004650D01*
X007158Y004650D01*
X007102Y004665D01*
X007052Y004694D01*
X007011Y004735D01*
X006982Y004785D01*
X006967Y004841D01*
X006967Y004980D01*
X006927Y004964D01*
X006265Y004964D01*
X006162Y005006D01*
X006083Y005085D01*
X006040Y005188D01*
X006040Y005221D01*
X005939Y005179D01*
X005899Y005179D01*
X005855Y005135D01*
X005723Y005081D01*
X005383Y005081D01*
X005250Y005135D01*
X004979Y005407D01*
X004877Y005508D01*
X004823Y005641D01*
X004823Y005937D01*
X004809Y005937D01*
X004809Y006067D01*
X004809Y006067D01*
X004809Y006067D01*
X004809Y005937D01*
X004719Y005937D01*
X004702Y005920D01*
X004649Y005898D01*
X004535Y005784D01*
X004535Y005743D01*
X004465Y005575D01*
X004336Y005446D01*
X004168Y005376D01*
X003985Y005376D01*
X003817Y005446D01*
X003688Y005575D01*
X003618Y005743D01*
X003618Y005925D01*
X003667Y006043D01*
X003402Y006043D01*
X003346Y006058D01*
X003296Y006087D01*
X003258Y006125D01*
X003251Y006109D01*
X003131Y005989D01*
X003158Y005961D01*
X003204Y005898D01*
X003239Y005828D01*
X003264Y005754D01*
X003276Y005677D01*
X003276Y005637D01*
X002502Y005637D01*
X002502Y005637D01*
X002502Y005140D01*
X002818Y005140D01*
X002895Y005152D01*
X002970Y005177D01*
X003039Y005212D01*
X003103Y005258D01*
X003158Y005314D01*
X003204Y005377D01*
X003239Y005447D01*
X003264Y005521D01*
X003276Y005598D01*
X003276Y005637D01*
X002502Y005637D01*
X002502Y005637D01*
X002502Y005140D01*
X002185Y005140D01*
X002108Y005152D01*
X002034Y005177D01*
X001964Y005212D01*
X001901Y005258D01*
X001845Y005314D01*
X001799Y005377D01*
X001764Y005447D01*
X001739Y005521D01*
X001727Y005598D01*
X001727Y005637D01*
X002502Y005637D01*
X002502Y005637D01*
X001727Y005637D01*
X001727Y005677D01*
X001739Y005754D01*
X001764Y005828D01*
X001799Y005898D01*
X001845Y005961D01*
X001873Y005989D01*
X001752Y006109D01*
X001667Y006314D01*
X001667Y006536D01*
X001752Y006740D01*
X001830Y006819D01*
X001752Y006897D01*
X001667Y007101D01*
X001667Y007323D01*
X001752Y007528D01*
X001909Y007685D01*
X001953Y007703D01*
X001916Y007740D01*
X001846Y007908D01*
X001846Y008091D01*
X001916Y008259D01*
X002045Y008388D01*
X002214Y008458D01*
X002396Y008458D01*
X002564Y008388D01*
X002571Y008381D01*
X003005Y008815D01*
X002896Y008860D01*
X002725Y009032D01*
X002632Y009256D01*
X002632Y009499D01*
X002725Y009723D01*
X002879Y009878D01*
X002725Y010032D01*
X002632Y010256D01*
X002632Y010476D01*
X001954Y010476D01*
X001851Y010518D01*
X001772Y010597D01*
X001729Y010700D01*
X001729Y011323D01*
X001739Y011346D01*
X001729Y011369D01*
X001729Y011992D01*
X001757Y012060D01*
X001632Y012060D01*
X001567Y012070D01*
X001505Y012090D01*
X001446Y012120D01*
X001393Y012159D01*
X001346Y012205D01*
X001307Y012259D01*
X001278Y012317D01*
X001257Y012380D01*
X001247Y012445D01*
X001247Y012478D01*
X001864Y012478D01*
X001864Y012478D01*
X001247Y012478D01*
X001247Y012511D01*
X001257Y012576D01*
X001278Y012639D01*
X001292Y012667D01*
X001260Y012699D01*
X001187Y012875D01*
X001187Y013065D01*
X001260Y013241D01*
X001394Y013376D01*
X001570Y013449D01*
X002157Y013449D01*
X002333Y013376D01*
X002341Y013367D01*
X002482Y013309D01*
X002819Y012972D01*
X002856Y012988D01*
X003627Y012988D01*
X003730Y012945D01*
X003809Y012866D01*
X003846Y012778D01*
X003912Y012778D01*
X004059Y012717D01*
X004397Y012378D01*
X004648Y012378D01*
X004751Y012335D01*
X004768Y012318D01*
X004998Y012318D01*
X004998Y011811D01*
X005013Y011811D01*
X005013Y012318D01*
X005290Y012318D01*
X005346Y012303D01*
X005396Y012274D01*
X005437Y012233D01*
X005466Y012183D01*
X005481Y012127D01*
X005481Y011811D01*
X005013Y011811D01*
X005013Y011795D01*
X005013Y011004D01*
X004998Y011004D01*
X004998Y011511D01*
X004998Y011795D01*
X005013Y011795D01*
X005481Y011795D01*
X005481Y011479D01*
X005466Y011423D01*
X005453Y011399D01*
X005466Y011376D01*
X005481Y011320D01*
X005481Y011004D01*
X005013Y011004D01*
X005013Y010988D01*
X005013Y010480D01*
X005290Y010480D01*
X005346Y010495D01*
X005396Y010524D01*
X005437Y010565D01*
X005466Y010615D01*
X005481Y010671D01*
X005481Y010988D01*
X005013Y010988D01*
X004998Y010988D01*
X004998Y010480D01*
X004768Y010480D01*
X004751Y010463D01*
X004648Y010420D01*
X004025Y010420D01*
X003946Y010453D01*
X003852Y010359D01*
X003852Y010256D01*
X003759Y010032D01*
X003604Y009878D01*
X003646Y009836D01*
X003721Y009910D01*
X003824Y009953D01*
X004447Y009953D01*
X004470Y009943D01*
X004493Y009953D01*
X005116Y009953D01*
X005219Y009910D01*
X005298Y009831D01*
X005341Y009729D01*
X005341Y009684D01*
X005343Y009683D01*
X005445Y009581D01*
X005692Y009334D01*
X005692Y009378D01*
X006242Y009378D01*
X006242Y009378D01*
X006242Y009828D01*
X006242Y010378D01*
X006242Y010378D01*
X006242Y010928D01*
X006242Y011378D01*
X006242Y011378D01*
X006242Y011828D01*
X006242Y012378D01*
X006242Y012378D01*
X006242Y012928D01*
X006285Y012928D01*
X006371Y012914D01*
X006453Y012887D01*
X006530Y012848D01*
X006600Y012797D01*
X006661Y012736D01*
X006712Y012666D01*
X006751Y012589D01*
X006778Y012506D01*
X006792Y012421D01*
X006792Y012378D01*
X006242Y012378D01*
X006242Y012378D01*
X006242Y012928D01*
X006198Y012928D01*
X006113Y012914D01*
X006031Y012887D01*
X005953Y012848D01*
X005883Y012797D01*
X005822Y012736D01*
X005771Y012666D01*
X005732Y012589D01*
X005705Y012506D01*
X005692Y012421D01*
X005692Y012378D01*
X006242Y012378D01*
X006792Y012378D01*
X006792Y012334D01*
X006778Y012249D01*
X006751Y012166D01*
X006712Y012089D01*
X006661Y012019D01*
X006600Y011958D01*
X006530Y011907D01*
X006472Y011878D01*
X006530Y011848D01*
X006600Y011797D01*
X006661Y011736D01*
X006712Y011666D01*
X006751Y011589D01*
X006778Y011506D01*
X006792Y011421D01*
X006792Y011378D01*
X006242Y011378D01*
X006242Y011378D01*
X006242Y012378D01*
X006242Y012378D01*
X006242Y012378D01*
X005692Y012378D01*
X005692Y012334D01*
X005705Y012249D01*
X005732Y012166D01*
X005771Y012089D01*
X005822Y012019D01*
X005883Y011958D01*
X005953Y011907D01*
X006012Y011878D01*
X005953Y011848D01*
X005883Y011797D01*
X005822Y011736D01*
X005771Y011666D01*
X005732Y011589D01*
X005705Y011506D01*
X005692Y011421D01*
X005692Y011378D01*
X006242Y011378D01*
X006792Y011378D01*
X006792Y011350D01*
X006938Y011411D01*
X007120Y011411D01*
X007289Y011341D01*
X007418Y011212D01*
X007488Y011044D01*
X007488Y010861D01*
X007418Y010693D01*
X007310Y010585D01*
X007310Y010221D01*
X007332Y010230D01*
X007514Y010230D01*
X007573Y010205D01*
X007591Y010250D01*
X007731Y010390D01*
X007914Y010466D01*
X008112Y010466D01*
X008295Y010390D01*
X008321Y010365D01*
X008321Y010380D01*
X008602Y010661D01*
X008801Y010661D01*
X008801Y010181D01*
X008801Y010181D01*
X008801Y010661D01*
X009000Y010661D01*
X009190Y010471D01*
X009306Y010587D01*
X009489Y010663D01*
X009687Y010663D01*
X009870Y010587D01*
X010010Y010447D01*
X010086Y010264D01*
X010086Y010066D01*
X010010Y009883D01*
X009988Y009861D01*
X009988Y009499D01*
X010014Y009525D01*
X010147Y009580D01*
X011014Y009580D01*
X011156Y009722D01*
X011180Y009732D01*
X011122Y009790D01*
X011108Y009825D01*
X010954Y009825D01*
X010785Y009894D01*
X010656Y010023D01*
X010586Y010192D01*
X010586Y010374D01*
X010656Y010543D01*
X010785Y010672D01*
X010954Y010741D01*
X011136Y010741D01*
X011158Y010733D01*
X011201Y010776D01*
X011304Y010819D01*
X011927Y010819D01*
X011950Y010809D01*
X011973Y010819D01*
X012597Y010819D01*
X012700Y010776D01*
X012778Y010698D01*
X012785Y010681D01*
X013227Y010681D01*
X013329Y010639D01*
X013391Y010577D01*
X013440Y010606D01*
X013496Y010621D01*
X013722Y010621D01*
X013722Y010126D01*
X013722Y010126D01*
X013722Y010621D01*
X013948Y010621D01*
X014004Y010606D01*
X014054Y010577D01*
X014095Y010536D01*
X014124Y010486D01*
X014139Y010430D01*
X014139Y010126D01*
X013722Y010126D01*
X013722Y010126D01*
X013840Y010244D01*
X013722Y010362D01*
X013722Y011149D01*
X011950Y011149D01*
X010966Y011149D01*
X010769Y010952D01*
X010572Y010952D01*
X010376Y010756D01*
X010699Y010585D02*
X009872Y010585D01*
X009305Y010585D02*
X009075Y010585D01*
X008801Y010585D02*
X008801Y010585D01*
X008527Y010585D02*
X007310Y010585D01*
X007310Y010347D02*
X007688Y010347D01*
X008013Y009968D02*
X008899Y009082D01*
X008407Y008590D01*
X007817Y008000D01*
X007620Y007803D01*
X005651Y007803D01*
X005139Y008315D01*
X004864Y008315D01*
X003604Y008315D01*
X002502Y007212D01*
X001734Y007485D02*
X000659Y007485D01*
X000659Y007723D02*
X001933Y007723D01*
X001846Y007962D02*
X000659Y007962D01*
X000659Y008200D02*
X001892Y008200D01*
X002167Y008439D02*
X000659Y008439D01*
X000659Y008677D02*
X002867Y008677D01*
X002841Y008916D02*
X001962Y008916D01*
X001840Y008794D02*
X002297Y009251D01*
X002297Y009897D01*
X001840Y010354D01*
X001194Y010354D01*
X000737Y009897D01*
X000737Y009251D01*
X001194Y008794D01*
X001840Y008794D01*
X001073Y008916D02*
X000659Y008916D01*
X000659Y009154D02*
X000834Y009154D01*
X000737Y009393D02*
X000659Y009393D01*
X000659Y009631D02*
X000737Y009631D01*
X000737Y009870D02*
X000659Y009870D01*
X000659Y010108D02*
X000948Y010108D01*
X001187Y010347D02*
X000659Y010347D01*
X000659Y010585D02*
X001784Y010585D01*
X001729Y010824D02*
X000659Y010824D01*
X000659Y011062D02*
X001729Y011062D01*
X002305Y011011D02*
X002876Y011011D01*
X003242Y011378D01*
X003923Y010996D02*
X004336Y010996D01*
X003923Y010996D02*
X003305Y010378D01*
X003242Y010378D01*
X002632Y010347D02*
X001848Y010347D01*
X002086Y010108D02*
X002693Y010108D01*
X002871Y009870D02*
X002297Y009870D01*
X002297Y009631D02*
X002687Y009631D01*
X002632Y009393D02*
X002297Y009393D01*
X002200Y009154D02*
X002674Y009154D01*
X002629Y008439D02*
X002442Y008439D01*
X005633Y009393D02*
X005692Y009393D01*
X005692Y009378D02*
X005692Y009421D01*
X005705Y009506D01*
X005732Y009589D01*
X005771Y009666D01*
X005822Y009736D01*
X005883Y009797D01*
X005953Y009848D01*
X006012Y009878D01*
X005953Y009907D01*
X005883Y009958D01*
X005822Y010019D01*
X005771Y010089D01*
X005732Y010166D01*
X005705Y010249D01*
X005692Y010334D01*
X005692Y010378D01*
X006242Y010378D01*
X006242Y011378D01*
X006242Y011378D01*
X006242Y011378D01*
X005692Y011378D01*
X005692Y011334D01*
X005705Y011249D01*
X005732Y011166D01*
X005771Y011089D01*
X005822Y011019D01*
X005883Y010958D01*
X005953Y010907D01*
X006012Y010878D01*
X005953Y010848D01*
X005883Y010797D01*
X005822Y010736D01*
X005771Y010666D01*
X005732Y010589D01*
X005705Y010506D01*
X005692Y010421D01*
X005692Y010378D01*
X006242Y010378D01*
X006242Y010378D01*
X006242Y010378D01*
X006242Y009378D01*
X006242Y009378D01*
X005692Y009378D01*
X005754Y009631D02*
X005395Y009631D01*
X005260Y009870D02*
X005997Y009870D01*
X006242Y009870D02*
X006242Y009870D01*
X006242Y010108D02*
X006242Y010108D01*
X006242Y010347D02*
X006242Y010347D01*
X005762Y010108D02*
X003791Y010108D01*
X003852Y010347D02*
X005692Y010347D01*
X005731Y010585D02*
X005449Y010585D01*
X005013Y010585D02*
X004998Y010585D01*
X004998Y010824D02*
X005013Y010824D01*
X004998Y011062D02*
X005013Y011062D01*
X005481Y011062D02*
X005791Y011062D01*
X005920Y010824D02*
X005481Y010824D01*
X006242Y010824D02*
X006242Y010824D01*
X006242Y011062D02*
X006242Y011062D01*
X006242Y011301D02*
X006242Y011301D01*
X006242Y011539D02*
X006242Y011539D01*
X006767Y011539D02*
X007653Y011539D01*
X007653Y011471D02*
X007708Y011339D01*
X007809Y011238D01*
X008006Y011041D01*
X008139Y010986D01*
X010644Y010986D01*
X010776Y011041D01*
X010878Y011142D01*
X010910Y011175D01*
X011032Y011124D01*
X011215Y011124D01*
X011383Y011194D01*
X011435Y011245D01*
X011435Y011238D01*
X011450Y011182D01*
X011479Y011132D01*
X011520Y011091D01*
X011570Y011062D01*
X011626Y011047D01*
X011942Y011047D01*
X011942Y011515D01*
X011958Y011515D01*
X011958Y011047D01*
X012275Y011047D01*
X012331Y011062D01*
X013364Y011062D01*
X013364Y011002D02*
X013379Y010946D01*
X013408Y010896D01*
X013449Y010855D01*
X013499Y010826D01*
X013555Y010811D01*
X013872Y010811D01*
X013872Y011279D01*
X013887Y011279D01*
X013887Y010811D01*
X014051Y010811D01*
X014051Y010664D01*
X014121Y010496D01*
X014250Y010367D01*
X014418Y010297D01*
X014526Y010297D01*
X014459Y010230D01*
X014418Y010230D01*
X014250Y010160D01*
X014139Y010049D01*
X014139Y010126D01*
X013722Y010126D01*
X013722Y009850D01*
X014116Y009456D01*
X014116Y008570D01*
X014096Y008551D01*
X014096Y009046D01*
X013870Y009046D01*
X013825Y009034D01*
X013825Y009591D01*
X013809Y009630D01*
X013948Y009630D01*
X014004Y009645D01*
X014054Y009674D01*
X014121Y009512D01*
X014149Y009483D01*
X014149Y009046D01*
X014096Y009046D01*
X014096Y008551D01*
X014096Y008551D01*
X014096Y008677D02*
X014096Y008677D01*
X014096Y008916D02*
X014096Y008916D01*
X014149Y009154D02*
X013825Y009154D01*
X013825Y009393D02*
X014149Y009393D01*
X014071Y009631D02*
X013953Y009631D01*
X013722Y009754D02*
X013722Y010126D01*
X013722Y010126D01*
X013722Y009754D01*
X013722Y009754D01*
X013722Y009870D02*
X013722Y009870D01*
X013722Y010108D02*
X013722Y010108D01*
X013840Y010244D02*
X014509Y010244D01*
X014298Y010347D02*
X014139Y010347D01*
X014139Y010108D02*
X014198Y010108D01*
X013722Y010347D02*
X013722Y010347D01*
X013722Y010585D02*
X013722Y010585D01*
X013404Y010585D02*
X013383Y010585D01*
X013508Y010824D02*
X007472Y010824D01*
X007480Y011062D02*
X007985Y011062D01*
X007746Y011301D02*
X007329Y011301D01*
X007653Y011471D02*
X007653Y012008D01*
X007708Y012141D01*
X007809Y012242D01*
X008192Y012624D01*
X007873Y012943D01*
X007524Y012595D01*
X007226Y012595D01*
X007226Y013315D01*
X007226Y014035D01*
X006928Y014035D01*
X006506Y013613D01*
X006506Y013315D01*
X007226Y013315D01*
X007226Y013315D01*
X007226Y014035D01*
X007524Y014035D01*
X007873Y013686D01*
X008281Y014095D01*
X008927Y014095D01*
X009293Y013729D01*
X009659Y014095D01*
X010305Y014095D01*
X010762Y013638D01*
X010762Y013226D01*
X011353Y013817D01*
X011485Y013871D01*
X016746Y013871D01*
X016879Y013817D01*
X016980Y013715D01*
X017364Y013332D01*
X017849Y013817D01*
X017981Y013871D01*
X020093Y013871D01*
X020225Y013817D01*
X020412Y013630D01*
X020947Y013630D01*
X020970Y013620D01*
X020993Y013630D01*
X021616Y013630D01*
X021695Y013597D01*
X021695Y013855D01*
X021710Y013911D01*
X021739Y013961D01*
X021780Y014002D01*
X021830Y014031D01*
X021886Y014046D01*
X022202Y014046D01*
X022202Y013578D01*
X022218Y013578D01*
X022218Y014046D01*
X022534Y014046D01*
X022590Y014031D01*
X022641Y014002D01*
X022682Y013961D01*
X022711Y013911D01*
X022726Y013855D01*
X022726Y013608D01*
X022731Y013621D01*
X022810Y013700D01*
X022913Y013742D01*
X023824Y013742D01*
X023927Y013700D01*
X024006Y013621D01*
X024048Y013518D01*
X024048Y013192D01*
X024118Y013192D01*
X024142Y013182D01*
X024246Y013182D01*
X024415Y013113D01*
X024544Y012984D01*
X024614Y012815D01*
X024614Y012633D01*
X024544Y012464D01*
X024508Y012429D01*
X024544Y012393D01*
X024614Y012225D01*
X024614Y012042D01*
X024544Y011874D01*
X024415Y011745D01*
X024246Y011675D01*
X024064Y011675D01*
X024048Y011681D01*
X024048Y011647D01*
X024006Y011544D01*
X023927Y011465D01*
X023824Y011422D01*
X022913Y011422D01*
X022810Y011465D01*
X022802Y011472D01*
X022786Y011472D01*
X022786Y011468D01*
X022743Y011365D01*
X022726Y011347D01*
X022726Y011118D01*
X022218Y011118D01*
X022218Y011102D01*
X022726Y011102D01*
X022726Y010825D01*
X022711Y010769D01*
X022682Y010719D01*
X022670Y010707D01*
X022706Y010722D01*
X023242Y010722D01*
X023375Y010667D01*
X023476Y010566D01*
X023503Y010539D01*
X023527Y010562D01*
X023740Y010651D01*
X024570Y010651D01*
X024784Y010562D01*
X024947Y010399D01*
X025035Y010186D01*
X025035Y009955D01*
X024947Y009742D01*
X024784Y009579D01*
X024570Y009491D01*
X023740Y009491D01*
X023527Y009579D01*
X023461Y009645D01*
X023396Y009489D01*
X023374Y009467D01*
X023374Y008894D01*
X023396Y008872D01*
X023472Y008689D01*
X023472Y008643D01*
X023516Y008687D01*
X023583Y008735D01*
X023656Y008773D01*
X023733Y008798D01*
X023814Y008811D01*
X024155Y008811D01*
X024155Y008291D01*
X024155Y008291D01*
X024155Y008811D01*
X024496Y008811D01*
X024577Y008798D01*
X024655Y008773D01*
X024728Y008735D01*
X024794Y008687D01*
X024852Y008629D01*
X024900Y008563D01*
X024937Y008490D01*
X024962Y008412D01*
X024975Y008332D01*
X024975Y008291D01*
X024155Y008291D01*
X024155Y008291D01*
X024155Y008291D01*
X024155Y007771D01*
X023814Y007771D01*
X023733Y007784D01*
X023656Y007809D01*
X023583Y007846D01*
X023516Y007894D01*
X023458Y007952D01*
X023410Y008018D01*
X023373Y008091D01*
X023348Y008169D01*
X023335Y008248D01*
X023256Y008168D01*
X023073Y008092D01*
X022875Y008092D01*
X022692Y008168D01*
X022552Y008308D01*
X022476Y008491D01*
X022476Y008689D01*
X022552Y008872D01*
X022574Y008894D01*
X022574Y008916D01*
X022538Y008901D01*
X021836Y008901D01*
X021733Y008943D01*
X021654Y009022D01*
X021611Y009125D01*
X021611Y009570D01*
X021421Y009491D01*
X021226Y009491D01*
X021226Y009189D01*
X020758Y009189D01*
X020758Y009173D01*
X021226Y009173D01*
X021226Y008856D01*
X021213Y008811D01*
X021346Y008811D01*
X021427Y008798D01*
X021505Y008773D01*
X021578Y008735D01*
X021644Y008687D01*
X021702Y008629D01*
X021750Y008563D01*
X021787Y008490D01*
X021813Y008412D01*
X021826Y008332D01*
X021826Y008291D01*
X021006Y008291D01*
X021006Y008291D01*
X021826Y008291D01*
X021826Y008250D01*
X021813Y008169D01*
X021787Y008091D01*
X021750Y008018D01*
X021702Y007952D01*
X021644Y007894D01*
X021578Y007846D01*
X021505Y007809D01*
X021427Y007784D01*
X021346Y007771D01*
X021006Y007771D01*
X021006Y008291D01*
X019730Y008291D01*
X019431Y008590D01*
X019234Y008787D01*
X019234Y010126D01*
X019232Y010120D02*
X019239Y010102D01*
X019368Y009973D01*
X019536Y009903D01*
X019661Y009903D01*
X019661Y009709D01*
X019587Y009635D01*
X019544Y009532D01*
X019544Y008830D01*
X019587Y008727D01*
X019666Y008648D01*
X019769Y008605D01*
X020291Y008605D01*
X020261Y008563D01*
X020224Y008490D01*
X020198Y008412D01*
X020186Y008332D01*
X020186Y008291D01*
X021005Y008291D01*
X021005Y008291D01*
X020186Y008291D01*
X020186Y008275D01*
X020172Y008281D01*
X018477Y008281D01*
X018434Y008324D01*
X018435Y008327D01*
X018435Y008377D01*
X018552Y008329D01*
X018734Y008329D01*
X018903Y008398D01*
X019032Y008527D01*
X019102Y008696D01*
X019102Y008878D01*
X019086Y008917D01*
X019120Y008951D01*
X019163Y009054D01*
X019163Y010016D01*
X019120Y010119D01*
X019119Y010120D01*
X019232Y010120D01*
X019236Y010108D02*
X019124Y010108D01*
X019163Y009870D02*
X019661Y009870D01*
X019586Y009631D02*
X019163Y009631D01*
X019163Y009393D02*
X019544Y009393D01*
X019544Y009154D02*
X019163Y009154D01*
X019086Y008916D02*
X019544Y008916D01*
X019636Y008677D02*
X019094Y008677D01*
X018944Y008439D02*
X020207Y008439D01*
X021006Y008291D02*
X021006Y008291D01*
X021006Y007771D01*
X020898Y007771D01*
X021000Y007669D01*
X021009Y007649D01*
X021013Y007651D01*
X024419Y007651D01*
X024468Y007771D01*
X024155Y007771D01*
X024155Y008291D01*
X024975Y008291D01*
X024975Y008250D01*
X024962Y008169D01*
X024937Y008091D01*
X024900Y008018D01*
X024876Y007986D01*
X024955Y007986D01*
X024994Y007969D01*
X025094Y008070D01*
X025094Y010945D01*
X025149Y011078D01*
X025250Y011179D01*
X025250Y011179D01*
X025550Y011479D01*
X025486Y011544D01*
X025443Y011647D01*
X025443Y012018D01*
X025486Y012121D01*
X025510Y012146D01*
X025503Y012173D01*
X025503Y012332D01*
X026123Y012332D01*
X026123Y012332D01*
X025503Y012332D01*
X025503Y012491D01*
X025510Y012519D01*
X025486Y012544D01*
X025443Y012647D01*
X025443Y013018D01*
X025470Y013082D01*
X025443Y013147D01*
X025443Y013518D01*
X025486Y013621D01*
X025564Y013700D01*
X025667Y013742D01*
X026579Y013742D01*
X026617Y013726D01*
X026707Y013817D01*
X026839Y013871D01*
X027607Y013871D01*
X027636Y013900D01*
X027804Y013970D01*
X027986Y013970D01*
X028155Y013900D01*
X028184Y013871D01*
X028557Y013871D01*
X028690Y013817D01*
X028770Y013736D01*
X029431Y013736D01*
X029534Y013694D01*
X029596Y013632D01*
X029686Y013669D01*
X030388Y013669D01*
X030491Y013627D01*
X030570Y013548D01*
X030609Y013452D01*
X030643Y013439D01*
X031153Y012928D01*
X031208Y012796D01*
X031208Y012084D01*
X031270Y012022D01*
X031346Y011839D01*
X031346Y011735D01*
X032410Y012799D01*
X032545Y012934D01*
X032721Y013007D01*
X035935Y013007D01*
X035820Y013122D01*
X035820Y013570D01*
X036136Y013886D01*
X036584Y013886D01*
X036724Y013746D01*
X037374Y013746D01*
X037514Y013886D01*
X037961Y013886D01*
X038278Y013570D01*
X038278Y013122D01*
X038163Y013007D01*
X038818Y013007D01*
X038994Y012934D01*
X039129Y012799D01*
X039129Y012799D01*
X039511Y012417D01*
X039628Y012417D01*
X039594Y012463D01*
X039559Y012533D01*
X039535Y012608D01*
X039523Y012685D01*
X039523Y012724D01*
X040297Y012724D01*
X040297Y012724D01*
X041071Y012724D01*
X041071Y012763D01*
X041059Y012840D01*
X041035Y012915D01*
X040999Y012985D01*
X040953Y013048D01*
X040898Y013103D01*
X040835Y013149D01*
X040765Y013185D01*
X040690Y013209D01*
X040613Y013221D01*
X040297Y013221D01*
X040297Y012724D01*
X041071Y012724D01*
X041071Y012685D01*
X041059Y012608D01*
X041035Y012533D01*
X040999Y012463D01*
X040953Y012400D01*
X040926Y012373D01*
X041046Y012252D01*
X041131Y012047D01*
X041131Y011826D01*
X041046Y011621D01*
X040890Y011464D01*
X040685Y011379D01*
X039909Y011379D01*
X039723Y011457D01*
X039217Y011457D01*
X039041Y011530D01*
X038906Y011665D01*
X038906Y011665D01*
X038523Y012047D01*
X038385Y012047D01*
X038393Y012028D01*
X038393Y011845D01*
X038323Y011677D01*
X038281Y011634D01*
X038240Y011536D01*
X037981Y011277D01*
X037849Y011222D01*
X037778Y011222D01*
X037739Y011128D01*
X037660Y011050D01*
X037557Y011007D01*
X036934Y011007D01*
X036911Y011017D01*
X036888Y011007D01*
X036265Y011007D01*
X036162Y011050D01*
X036135Y011077D01*
X036135Y010850D01*
X035628Y010850D01*
X035628Y010834D01*
X036135Y010834D01*
X036135Y010557D01*
X036120Y010501D01*
X036091Y010451D01*
X036050Y010410D01*
X036000Y010381D01*
X035944Y010366D01*
X035628Y010366D01*
X035628Y010834D01*
X035612Y010834D01*
X035612Y010366D01*
X035295Y010366D01*
X035239Y010381D01*
X035189Y010410D01*
X035148Y010451D01*
X035119Y010501D01*
X035104Y010557D01*
X035104Y010834D01*
X035612Y010834D01*
X035612Y010850D01*
X035104Y010850D01*
X035104Y011080D01*
X035087Y011097D01*
X035055Y011174D01*
X034878Y011174D01*
X034878Y011066D01*
X034790Y010854D01*
X034628Y010692D01*
X034522Y010648D01*
X034572Y010623D01*
X034637Y010575D01*
X034695Y010517D01*
X034743Y010452D01*
X034780Y010379D01*
X034805Y010302D01*
X034818Y010221D01*
X034818Y010181D01*
X034301Y010181D01*
X034301Y010181D01*
X034818Y010181D01*
X034818Y010140D01*
X034805Y010060D01*
X034780Y009982D01*
X034743Y009910D01*
X034695Y009844D01*
X034637Y009786D01*
X034572Y009739D01*
X034499Y009702D01*
X034435Y009681D01*
X034499Y009660D01*
X034572Y009623D01*
X034637Y009575D01*
X034695Y009517D01*
X034743Y009452D01*
X034780Y009379D01*
X034805Y009302D01*
X034818Y009221D01*
X034818Y009181D01*
X034301Y009181D01*
X034301Y009181D01*
X034301Y010181D01*
X034301Y010181D01*
X034301Y009698D01*
X034301Y009181D01*
X034301Y009181D01*
X034818Y009181D01*
X034818Y009140D01*
X034805Y009060D01*
X034780Y008982D01*
X034743Y008910D01*
X034695Y008844D01*
X034637Y008786D01*
X034572Y008739D01*
X034499Y008702D01*
X034435Y008681D01*
X034499Y008660D01*
X034572Y008623D01*
X034637Y008575D01*
X034695Y008517D01*
X034743Y008452D01*
X034780Y008379D01*
X034805Y008302D01*
X034818Y008221D01*
X034818Y008181D01*
X034301Y008181D01*
X034301Y008181D01*
X034301Y009181D01*
X034301Y009181D01*
X034301Y008698D01*
X034301Y008181D01*
X034301Y008181D01*
X034818Y008181D01*
X034818Y008140D01*
X034805Y008060D01*
X034780Y007982D01*
X034743Y007910D01*
X034695Y007844D01*
X034637Y007786D01*
X034572Y007739D01*
X034499Y007702D01*
X034435Y007681D01*
X034499Y007660D01*
X034572Y007623D01*
X034637Y007575D01*
X034695Y007517D01*
X034743Y007452D01*
X034780Y007379D01*
X034805Y007302D01*
X034818Y007221D01*
X034818Y007181D01*
X034301Y007181D01*
X034301Y007181D01*
X034301Y008181D01*
X034301Y008181D01*
X034301Y007698D01*
X034301Y007181D01*
X034301Y007181D01*
X034818Y007181D01*
X034818Y007140D01*
X034805Y007060D01*
X034780Y006982D01*
X034743Y006910D01*
X034695Y006844D01*
X034637Y006786D01*
X034572Y006739D01*
X034499Y006702D01*
X034422Y006677D01*
X034341Y006664D01*
X034301Y006664D01*
X034301Y007181D01*
X034301Y007181D01*
X034301Y006664D01*
X034260Y006664D01*
X034180Y006677D01*
X034102Y006702D01*
X034030Y006739D01*
X033964Y006786D01*
X033907Y006844D01*
X033859Y006910D01*
X033833Y006959D01*
X033790Y006854D01*
X033628Y006692D01*
X033416Y006604D01*
X033233Y006604D01*
X032985Y006356D01*
X032977Y006352D01*
X036115Y006352D01*
X037338Y007575D01*
X037338Y008982D01*
X037198Y009122D01*
X037198Y009570D01*
X037514Y009886D01*
X037681Y009886D01*
X037702Y009907D01*
X037849Y009968D01*
X039146Y009968D01*
X039188Y010011D01*
X039029Y010169D01*
X039029Y010368D01*
X039509Y010368D01*
X039509Y010368D01*
X039029Y010368D01*
X039029Y010567D01*
X039311Y010848D01*
X039509Y010848D01*
X039509Y010368D01*
X039509Y010368D01*
X039509Y010848D01*
X039708Y010848D01*
X039989Y010567D01*
X039989Y010368D01*
X039509Y010368D01*
X039509Y010368D01*
X039989Y010368D01*
X039989Y010169D01*
X039831Y010011D01*
X039967Y009874D01*
X040049Y009676D01*
X040049Y009461D01*
X039967Y009262D01*
X039815Y009110D01*
X039494Y008916D02*
X040982Y008916D01*
X041675Y008916D02*
X041675Y008916D01*
X041675Y009154D02*
X041675Y009154D01*
X041675Y008677D02*
X041675Y008677D01*
X040955Y008677D02*
X039494Y008677D01*
X039494Y008439D02*
X040955Y008439D01*
X041046Y008200D02*
X039494Y008200D01*
X039494Y007962D02*
X041285Y007962D01*
X041280Y007723D02*
X039413Y007723D01*
X039023Y007485D02*
X041041Y007485D01*
X040895Y007246D02*
X039655Y007246D01*
X039895Y007008D02*
X039911Y007008D01*
X040379Y007008D02*
X040895Y007008D01*
X040895Y006769D02*
X040379Y006769D01*
X040379Y006531D02*
X041056Y006531D01*
X041295Y006292D02*
X040337Y006292D01*
X039911Y006292D02*
X039895Y006292D01*
X039895Y006531D02*
X039911Y006531D01*
X039895Y006769D02*
X039911Y006769D01*
X039377Y006054D02*
X041185Y006054D01*
X040947Y005815D02*
X039326Y005815D01*
X039359Y005577D02*
X040895Y005577D01*
X040895Y005338D02*
X039373Y005338D01*
X039227Y005100D02*
X040912Y005100D01*
X041151Y004861D02*
X038849Y004861D01*
X038610Y004623D02*
X041675Y004623D01*
X041675Y004384D02*
X038372Y004384D01*
X036294Y006531D02*
X033160Y006531D01*
X033705Y006769D02*
X033988Y006769D01*
X034301Y006769D02*
X034301Y006769D01*
X034614Y006769D02*
X036532Y006769D01*
X036771Y007008D02*
X034788Y007008D01*
X034814Y007246D02*
X037009Y007246D01*
X037248Y007485D02*
X034719Y007485D01*
X034301Y007485D02*
X034301Y007485D01*
X034301Y007723D02*
X034301Y007723D01*
X034301Y007962D02*
X034301Y007962D01*
X034542Y007723D02*
X037338Y007723D01*
X037338Y007962D02*
X034769Y007962D01*
X034818Y008200D02*
X037338Y008200D01*
X037338Y008439D02*
X034749Y008439D01*
X034301Y008439D02*
X034301Y008439D01*
X034301Y008200D02*
X034301Y008200D01*
X034301Y008677D02*
X034301Y008677D01*
X034445Y008677D02*
X037338Y008677D01*
X037338Y008916D02*
X036609Y008916D01*
X036559Y008866D02*
X036840Y009147D01*
X036840Y009346D01*
X036360Y009346D01*
X036360Y009346D01*
X036840Y009346D01*
X036840Y009545D01*
X036559Y009826D01*
X036360Y009826D01*
X036360Y009346D01*
X036360Y008866D01*
X036559Y008866D01*
X036360Y008866D02*
X036360Y009346D01*
X036360Y009346D01*
X036360Y009346D01*
X035880Y009346D01*
X035880Y009147D01*
X036161Y008866D01*
X036360Y008866D01*
X036360Y008916D02*
X036360Y008916D01*
X036360Y009154D02*
X036360Y009154D01*
X036111Y008916D02*
X034746Y008916D01*
X034818Y009154D02*
X035880Y009154D01*
X035880Y009346D02*
X036360Y009346D01*
X036360Y009346D01*
X036360Y009826D01*
X036161Y009826D01*
X035880Y009545D01*
X035880Y009346D01*
X035880Y009393D02*
X034773Y009393D01*
X034555Y009631D02*
X035966Y009631D01*
X036360Y009631D02*
X036360Y009631D01*
X036360Y009393D02*
X036360Y009393D01*
X036753Y009631D02*
X037259Y009631D01*
X037198Y009393D02*
X036840Y009393D01*
X036840Y009154D02*
X037198Y009154D01*
X037498Y009870D02*
X034714Y009870D01*
X034301Y009870D02*
X034301Y009870D01*
X034301Y010108D02*
X034301Y010108D01*
X034813Y010108D02*
X039090Y010108D01*
X039029Y010347D02*
X034790Y010347D01*
X034623Y010585D02*
X035104Y010585D01*
X035612Y010585D02*
X035628Y010585D01*
X036135Y010585D02*
X039048Y010585D01*
X039509Y010585D02*
X039509Y010585D01*
X039971Y010585D02*
X041004Y010585D01*
X040907Y010347D02*
X039989Y010347D01*
X039929Y010108D02*
X040907Y010108D01*
X040907Y009870D02*
X039969Y009870D01*
X040049Y009631D02*
X041117Y009631D01*
X041675Y008439D02*
X041675Y008439D01*
X041675Y008200D02*
X041675Y008200D01*
X041675Y007962D02*
X041675Y007962D01*
X034301Y007246D02*
X034301Y007246D01*
X034301Y007008D02*
X034301Y007008D01*
X034301Y008916D02*
X034301Y008916D01*
X034301Y009154D02*
X034301Y009154D01*
X034301Y009393D02*
X034301Y009393D01*
X034301Y009631D02*
X034301Y009631D01*
X034760Y010824D02*
X035104Y010824D01*
X035104Y011062D02*
X034876Y011062D01*
X034694Y011574D02*
X034301Y011181D01*
X035407Y011574D02*
X035572Y011543D01*
X035604Y011511D01*
X035620Y011511D01*
X035407Y011574D02*
X034694Y011574D01*
X036135Y011062D02*
X036149Y011062D01*
X036135Y010824D02*
X039286Y010824D01*
X039509Y010824D02*
X039509Y010824D01*
X039732Y010824D02*
X041242Y010824D01*
X041675Y011062D02*
X037673Y011062D01*
X038005Y011301D02*
X041675Y011301D01*
X041675Y011539D02*
X040965Y011539D01*
X041111Y011778D02*
X041675Y011778D01*
X041675Y012016D02*
X041131Y012016D01*
X041044Y012255D02*
X041675Y012255D01*
X041675Y012493D02*
X041014Y012493D01*
X041071Y012732D02*
X041675Y012732D01*
X041675Y012970D02*
X041006Y012970D01*
X040691Y013209D02*
X041675Y013209D01*
X041675Y013447D02*
X038278Y013447D01*
X038278Y013209D02*
X039903Y013209D01*
X039829Y013185D01*
X039759Y013149D01*
X039696Y013103D01*
X039640Y013048D01*
X039594Y012985D01*
X039559Y012915D01*
X039535Y012840D01*
X039523Y012763D01*
X039523Y012724D01*
X040297Y012724D01*
X040297Y012724D01*
X040297Y013221D01*
X039981Y013221D01*
X039903Y013209D01*
X040297Y013209D02*
X040297Y013209D01*
X040297Y012970D02*
X040297Y012970D01*
X039587Y012970D02*
X038906Y012970D01*
X039196Y012732D02*
X039523Y012732D01*
X039579Y012493D02*
X039435Y012493D01*
X040297Y012724D02*
X040297Y012724D01*
X040297Y012732D02*
X040297Y012732D01*
X038554Y012016D02*
X038393Y012016D01*
X038365Y011778D02*
X038792Y011778D01*
X039031Y011539D02*
X038241Y011539D01*
X035628Y010824D02*
X035612Y010824D01*
X031627Y012016D02*
X031272Y012016D01*
X031208Y012255D02*
X031865Y012255D01*
X032104Y012493D02*
X031208Y012493D01*
X031208Y012732D02*
X032342Y012732D01*
X032632Y012970D02*
X031111Y012970D01*
X030872Y013209D02*
X035820Y013209D01*
X035820Y013447D02*
X030621Y013447D01*
X029542Y013686D02*
X035936Y013686D01*
X036360Y013346D02*
X037738Y013346D01*
X038162Y013686D02*
X041675Y013686D01*
X041675Y013924D02*
X028096Y013924D01*
X027694Y013924D02*
X022703Y013924D01*
X022726Y013686D02*
X022796Y013686D01*
X022218Y013686D02*
X022202Y013686D01*
X022202Y013924D02*
X022218Y013924D01*
X021718Y013924D02*
X010475Y013924D01*
X010714Y013686D02*
X011222Y013686D01*
X010984Y013447D02*
X010762Y013447D01*
X009489Y013924D02*
X009097Y013924D01*
X008111Y013924D02*
X007634Y013924D01*
X007226Y013924D02*
X007226Y013924D01*
X007226Y013686D02*
X007226Y013686D01*
X006818Y013924D02*
X000659Y013924D01*
X000659Y013686D02*
X006579Y013686D01*
X006506Y013447D02*
X002160Y013447D01*
X002582Y013209D02*
X006506Y013209D01*
X006506Y013315D02*
X006506Y013016D01*
X006928Y012595D01*
X007226Y012595D01*
X007226Y013315D01*
X007226Y013315D01*
X006506Y013315D01*
X007226Y013315D02*
X007226Y013315D01*
X007226Y013209D02*
X007226Y013209D01*
X007226Y013447D02*
X007226Y013447D01*
X007226Y012970D02*
X007226Y012970D01*
X006552Y012970D02*
X003669Y012970D01*
X004022Y012732D02*
X005819Y012732D01*
X005703Y012493D02*
X004282Y012493D01*
X003832Y012378D02*
X004336Y011874D01*
X004998Y011778D02*
X005013Y011778D01*
X005481Y011778D02*
X005864Y011778D01*
X006242Y011778D02*
X006242Y011778D01*
X006619Y011778D02*
X007653Y011778D01*
X007657Y012016D02*
X006658Y012016D01*
X006779Y012255D02*
X007823Y012255D01*
X008061Y012493D02*
X006780Y012493D01*
X006790Y012732D02*
X006664Y012732D01*
X006242Y012732D02*
X006242Y012732D01*
X006242Y012493D02*
X006242Y012493D01*
X006242Y012255D02*
X006242Y012255D01*
X006242Y012016D02*
X006242Y012016D01*
X005825Y012016D02*
X005481Y012016D01*
X005416Y012255D02*
X005704Y012255D01*
X005013Y012255D02*
X004998Y012255D01*
X004998Y012016D02*
X005013Y012016D01*
X003832Y012378D02*
X003242Y012378D01*
X002580Y012212D02*
X002305Y011937D01*
X002305Y011681D01*
X001729Y011778D02*
X000659Y011778D01*
X000659Y012016D02*
X001739Y012016D01*
X001310Y012255D02*
X000659Y012255D01*
X000659Y012493D02*
X001247Y012493D01*
X001246Y012732D02*
X000659Y012732D01*
X000659Y012970D02*
X001187Y012970D01*
X001246Y013209D02*
X000659Y013209D01*
X000659Y013447D02*
X001568Y013447D01*
X001864Y012970D02*
X002256Y012970D01*
X002580Y012645D01*
X002580Y012212D01*
X001729Y011539D02*
X000659Y011539D01*
X000659Y011301D02*
X001729Y011301D01*
X002305Y011011D02*
X002332Y010984D01*
X004998Y011301D02*
X005013Y011301D01*
X004998Y011539D02*
X005013Y011539D01*
X005481Y011539D02*
X005716Y011539D01*
X005697Y011301D02*
X005481Y011301D01*
X006242Y010585D02*
X006242Y010585D01*
X008801Y010347D02*
X008801Y010347D01*
X009588Y010165D02*
X009588Y008000D01*
X009982Y006819D02*
X011754Y006819D01*
X012443Y006819D01*
X012600Y006661D01*
X012600Y005866D01*
X012738Y005728D02*
X012738Y005441D01*
X012935Y005244D01*
X013414Y005100D02*
X014030Y005100D01*
X013722Y005244D02*
X013722Y005866D01*
X013269Y005866D01*
X013269Y006661D01*
X013261Y006653D02*
X013277Y006653D01*
X013277Y006146D01*
X013277Y005874D01*
X013261Y005874D01*
X013261Y006653D01*
X013277Y006653D02*
X013277Y006669D01*
X014167Y006669D01*
X014167Y006653D01*
X014183Y006653D01*
X014183Y006146D01*
X014183Y005874D01*
X014167Y005874D01*
X014167Y006653D01*
X013699Y006653D01*
X013277Y006653D01*
X013328Y006622D02*
X014175Y006622D01*
X014175Y005866D01*
X013722Y005866D01*
X013699Y005858D02*
X014167Y005858D01*
X014167Y005874D01*
X013277Y005874D01*
X013277Y005858D01*
X013699Y005858D01*
X013277Y006054D02*
X013261Y006054D01*
X013261Y006292D02*
X013277Y006292D01*
X013261Y006531D02*
X013277Y006531D01*
X014167Y006531D02*
X014183Y006531D01*
X014175Y006622D02*
X014175Y006661D01*
X014167Y006292D02*
X014183Y006292D01*
X014167Y006054D02*
X014183Y006054D01*
X014706Y005637D02*
X014706Y005441D01*
X014509Y005244D01*
X014989Y005100D02*
X016309Y005100D01*
X016071Y005338D02*
X016040Y005338D01*
X015341Y005338D02*
X015264Y005338D01*
X014012Y005338D02*
X013432Y005338D01*
X012455Y005100D02*
X011864Y005100D01*
X012011Y005338D02*
X012180Y005338D01*
X012064Y005577D02*
X011996Y005577D01*
X010658Y005100D02*
X010001Y005100D01*
X009258Y004861D02*
X012613Y004861D01*
X013256Y004861D02*
X014188Y004861D01*
X014831Y004861D02*
X016548Y004861D01*
X016786Y004623D02*
X009218Y004623D01*
X008033Y004623D02*
X008033Y004623D01*
X008033Y004861D02*
X008033Y004861D01*
X007677Y004623D02*
X000659Y004623D01*
X000659Y004861D02*
X006967Y004861D01*
X007462Y004861D02*
X007462Y004861D01*
X006077Y005100D02*
X005769Y005100D01*
X005336Y005100D02*
X000659Y005100D01*
X000659Y005338D02*
X001827Y005338D01*
X001731Y005577D02*
X000659Y005577D01*
X000659Y005815D02*
X001759Y005815D01*
X001807Y006054D02*
X000659Y006054D01*
X000659Y006292D02*
X001676Y006292D01*
X001667Y006531D02*
X000659Y006531D01*
X000659Y006769D02*
X001781Y006769D01*
X001706Y007008D02*
X000659Y007008D01*
X000659Y007246D02*
X001667Y007246D01*
X004609Y006905D02*
X004622Y006910D01*
X004645Y006901D01*
X004973Y006901D01*
X005076Y006943D01*
X005093Y006961D01*
X005183Y006961D01*
X005296Y006961D01*
X005296Y006909D01*
X005019Y006909D01*
X004916Y006867D01*
X004898Y006849D01*
X004809Y006849D01*
X004809Y006720D01*
X004809Y006720D01*
X004809Y006849D01*
X004719Y006849D01*
X004702Y006867D01*
X004609Y006905D01*
X004809Y006769D02*
X004809Y006769D01*
X004809Y006720D02*
X004809Y006720D01*
X005183Y006961D02*
X005183Y007091D01*
X005183Y006961D01*
X005183Y007008D02*
X005183Y007008D01*
X005183Y007091D02*
X005183Y007091D01*
X005571Y006531D02*
X005864Y006531D01*
X005571Y006531D01*
X005571Y006515D01*
X005864Y006515D01*
X005864Y006096D01*
X005880Y006096D01*
X005880Y006515D01*
X005864Y006515D01*
X005864Y006531D01*
X005864Y006292D02*
X005880Y006292D01*
X004809Y006054D02*
X004809Y006054D01*
X004823Y005815D02*
X004567Y005815D01*
X004466Y005577D02*
X004849Y005577D01*
X005047Y005338D02*
X003176Y005338D01*
X003273Y005577D02*
X003687Y005577D01*
X003618Y005815D02*
X003244Y005815D01*
X003196Y006054D02*
X003363Y006054D01*
X002502Y005577D02*
X002502Y005577D01*
X002502Y005338D02*
X002502Y005338D01*
X000659Y004384D02*
X017025Y004384D01*
X014844Y005866D02*
X014844Y006661D01*
X020946Y007723D02*
X024449Y007723D01*
X024155Y007962D02*
X024155Y007962D01*
X024155Y008200D02*
X024155Y008200D01*
X024155Y008439D02*
X024155Y008439D01*
X024954Y008439D02*
X025094Y008439D01*
X025094Y008200D02*
X024967Y008200D01*
X025094Y008677D02*
X024804Y008677D01*
X024155Y008677D02*
X024155Y008677D01*
X023506Y008677D02*
X023472Y008677D01*
X022974Y008590D02*
X022974Y009378D01*
X022974Y009771D01*
X023455Y009631D02*
X023474Y009631D01*
X023374Y009393D02*
X025094Y009393D01*
X025094Y009631D02*
X024836Y009631D01*
X025000Y009870D02*
X025094Y009870D01*
X025094Y010108D02*
X025035Y010108D01*
X025094Y010347D02*
X024969Y010347D01*
X025094Y010585D02*
X024728Y010585D01*
X025094Y010824D02*
X022725Y010824D01*
X022726Y011062D02*
X025143Y011062D01*
X025372Y011301D02*
X022726Y011301D01*
X024001Y011539D02*
X025490Y011539D01*
X025443Y011778D02*
X024448Y011778D01*
X024603Y012016D02*
X025443Y012016D01*
X025503Y012255D02*
X024601Y012255D01*
X024556Y012493D02*
X025504Y012493D01*
X025443Y012732D02*
X024614Y012732D01*
X024549Y012970D02*
X025443Y012970D01*
X025443Y013209D02*
X024048Y013209D01*
X024048Y013447D02*
X025443Y013447D01*
X025551Y013686D02*
X023941Y013686D01*
X026123Y013332D02*
X026123Y013315D01*
X026123Y012832D01*
X023370Y012330D02*
X023368Y012332D01*
X021695Y013686D02*
X020356Y013686D01*
X017718Y013686D02*
X017009Y013686D01*
X017248Y013447D02*
X017480Y013447D01*
X013304Y012007D02*
X013304Y011645D01*
X013347Y011542D01*
X013364Y011524D01*
X013364Y011295D01*
X013872Y011295D01*
X013872Y011420D01*
X013887Y011420D01*
X013887Y011295D01*
X013872Y011295D01*
X013872Y011279D01*
X013364Y011279D01*
X013364Y011002D01*
X013722Y011149D02*
X013880Y011307D01*
X013919Y011346D01*
X013887Y011301D02*
X013872Y011301D01*
X013880Y011307D02*
X013880Y011287D01*
X013742Y011149D02*
X013722Y011149D01*
X013872Y011062D02*
X013887Y011062D01*
X013872Y010824D02*
X013887Y010824D01*
X014040Y010585D02*
X014084Y010585D01*
X012451Y011182D02*
X012466Y011238D01*
X012466Y011515D01*
X011958Y011515D01*
X011958Y011531D01*
X012466Y011531D01*
X012466Y011676D01*
X012665Y011593D01*
X012879Y011593D01*
X013078Y011676D01*
X013230Y011828D01*
X013304Y012007D01*
X013304Y011778D02*
X013180Y011778D01*
X013349Y011539D02*
X012466Y011539D01*
X012466Y011676D02*
X012466Y011676D01*
X011950Y011523D02*
X011950Y011149D01*
X011942Y011062D02*
X011958Y011062D01*
X012331Y011062D02*
X012381Y011091D01*
X012422Y011132D01*
X012451Y011182D01*
X012466Y011301D02*
X013364Y011301D01*
X011958Y011301D02*
X011942Y011301D01*
X011570Y011062D02*
X010798Y011062D01*
X010586Y010347D02*
X010052Y010347D01*
X010086Y010108D02*
X010621Y010108D01*
X010844Y009870D02*
X009997Y009870D01*
X009988Y009631D02*
X011065Y009631D01*
X006242Y009631D02*
X006242Y009631D01*
X006242Y009393D02*
X006242Y009393D01*
X003681Y009870D02*
X003612Y009870D01*
X007226Y012732D02*
X007226Y012732D01*
X007662Y012732D02*
X008084Y012732D01*
X000659Y014163D02*
X041675Y014163D01*
X031388Y011778D02*
X031346Y011778D01*
X030848Y011740D02*
X030092Y011740D01*
X029285Y010933D01*
X029100Y010933D01*
X028726Y010559D01*
X026320Y010559D01*
X026124Y010756D01*
X023582Y010585D02*
X023456Y010585D01*
X021611Y009393D02*
X021226Y009393D01*
X021226Y009154D02*
X021611Y009154D01*
X021799Y008916D02*
X021226Y008916D01*
X021654Y008677D02*
X022476Y008677D01*
X022498Y008439D02*
X021804Y008439D01*
X021818Y008200D02*
X022660Y008200D01*
X023288Y008200D02*
X023343Y008200D01*
X023451Y007962D02*
X021709Y007962D01*
X021006Y007962D02*
X021006Y007962D01*
X021006Y008200D02*
X021006Y008200D01*
X023374Y008916D02*
X025094Y008916D01*
X025094Y009154D02*
X023374Y009154D01*
X022453Y004861D02*
X022256Y004861D01*
X021878Y004623D02*
X022692Y004623D01*
X022930Y004384D02*
X021640Y004384D01*
D35*
X035376Y006819D03*
X031439Y013315D03*
D36*
X032817Y012527D02*
X038722Y012527D01*
X039313Y011937D01*
X040297Y011937D01*
X032817Y012527D02*
X031242Y010952D01*
X030651Y010952D01*
X029864Y010165D01*
X029864Y009181D01*
X028683Y009181D01*
X004336Y011803D02*
X004336Y011874D01*
M02*
