%
M48
M72
T01C0.0197
T02C0.0276
T03C0.0315
T04C0.0320
T05C0.0354
T06C0.0394
T07C0.0400
T08C0.0433
T09C0.0440
%
T01
X10376Y5165
X10966Y5441
X11557Y5441
X15297Y5244
X15691Y5637
X17069Y6622
X16675Y7015
X15494Y6819
X17659Y7606
X18643Y8315
X18643Y8787
X17974Y9299
X16084Y9378
X16084Y9889
X17462Y9968
X16084Y10401
X17265Y10756
X16872Y11149
X16281Y11149
X14509Y10756
X14509Y9771
X12817Y9456
X11754Y9417
X11439Y8905
X10415Y8826
X11439Y8393
X14903Y8590
X14903Y8000
X20612Y7409
X24194Y6582
X24864Y7527
X21911Y5165
X32620Y7015
X38328Y8196
X38328Y8984
X40691Y7803
X38525Y6425
X38919Y6031
X38919Y5441
X38919Y4850
X32029Y10756
X26793Y11464
X24155Y11543
X24155Y12133
X24155Y12724
X27305Y13118
X27895Y13511
X20021Y12724
X19431Y12133
X18919Y12133
X18368Y12842
X16675Y12842
X16281Y13118
X11124Y11582
X9391Y12015
X8880Y12133
X8525Y11740
X7029Y10952
X7423Y9771
X11045Y10283
X4076Y7803
X2305Y8000
X4076Y5834
X5848Y5637
X6320Y5913
X9194Y6819
X19628Y10362
X19431Y10913
X1864Y12478
X1864Y12970
X37935Y11937
T02
X30848Y11740
X26124Y10756
X22974Y9771
X22974Y8590
X26832Y6110
X26714Y5441
X25139Y5441
X14509Y5244
X12935Y5244
X9982Y6819
X9588Y8000
X8899Y9082
X8013Y9968
X9588Y10165
X38525Y7409
T03
X19265Y6074
T04
X8801Y8181
X7801Y9181
X8801Y10181
X12772Y12133
X14672Y12133
X36360Y13346
X37738Y13346
X39509Y10368
X39509Y9568
X37738Y9346
X36360Y9346
T05
X40297Y11937
X40297Y12724
X2502Y7212
X2502Y6425
X2502Y5637
T06
X26202Y8511
X26202Y9850
X31163Y9850
X33301Y10181
X34301Y10181
X34301Y11181
X33301Y11181
X33301Y9181
X34301Y9181
X34301Y8181
X33301Y8181
X31163Y8511
X33301Y7181
X34301Y7181
T07
X41675Y7015
X41675Y8590
X41687Y10165
X41675Y5441
X24155Y8291
X21006Y8291
X21006Y10071
X24155Y10071
X9982Y13315
X8604Y13315
X7226Y13315
X1517Y9574
T08
X27502Y9181
X28683Y9181
X29864Y9181
X35376Y6819
X31439Y13315
T09
X6242Y12378
X6242Y11378
X6242Y10378
X6242Y9378
X3242Y9378
X3242Y10378
X3242Y11378
X3242Y12378
M30
