G75*
G70*
%OFA0B0*%
%FSLAX24Y24*%
%IPPOS*%
%LPD*%
%AMOC8*
5,1,8,0,0,1.08239X$1,22.5*
%
%ADD10C,0.0000*%
%ADD11C,0.0060*%
%ADD12C,0.0040*%
%ADD13C,0.0020*%
%ADD14C,0.0050*%
%ADD15C,0.0090*%
D10*
X000139Y003669D02*
X000139Y014693D01*
X042659Y014693D01*
X042659Y003669D01*
X000139Y003669D01*
X026005Y008511D02*
X026007Y008538D01*
X026013Y008565D01*
X026022Y008591D01*
X026035Y008615D01*
X026051Y008638D01*
X026070Y008657D01*
X026092Y008674D01*
X026116Y008688D01*
X026141Y008698D01*
X026168Y008705D01*
X026195Y008708D01*
X026223Y008707D01*
X026250Y008702D01*
X026276Y008694D01*
X026300Y008682D01*
X026323Y008666D01*
X026344Y008648D01*
X026361Y008627D01*
X026376Y008603D01*
X026387Y008578D01*
X026395Y008552D01*
X026399Y008525D01*
X026399Y008497D01*
X026395Y008470D01*
X026387Y008444D01*
X026376Y008419D01*
X026361Y008395D01*
X026344Y008374D01*
X026323Y008356D01*
X026301Y008340D01*
X026276Y008328D01*
X026250Y008320D01*
X026223Y008315D01*
X026195Y008314D01*
X026168Y008317D01*
X026141Y008324D01*
X026116Y008334D01*
X026092Y008348D01*
X026070Y008365D01*
X026051Y008384D01*
X026035Y008407D01*
X026022Y008431D01*
X026013Y008457D01*
X026007Y008484D01*
X026005Y008511D01*
X026005Y009850D02*
X026007Y009877D01*
X026013Y009904D01*
X026022Y009930D01*
X026035Y009954D01*
X026051Y009977D01*
X026070Y009996D01*
X026092Y010013D01*
X026116Y010027D01*
X026141Y010037D01*
X026168Y010044D01*
X026195Y010047D01*
X026223Y010046D01*
X026250Y010041D01*
X026276Y010033D01*
X026300Y010021D01*
X026323Y010005D01*
X026344Y009987D01*
X026361Y009966D01*
X026376Y009942D01*
X026387Y009917D01*
X026395Y009891D01*
X026399Y009864D01*
X026399Y009836D01*
X026395Y009809D01*
X026387Y009783D01*
X026376Y009758D01*
X026361Y009734D01*
X026344Y009713D01*
X026323Y009695D01*
X026301Y009679D01*
X026276Y009667D01*
X026250Y009659D01*
X026223Y009654D01*
X026195Y009653D01*
X026168Y009656D01*
X026141Y009663D01*
X026116Y009673D01*
X026092Y009687D01*
X026070Y009704D01*
X026051Y009723D01*
X026035Y009746D01*
X026022Y009770D01*
X026013Y009796D01*
X026007Y009823D01*
X026005Y009850D01*
X030966Y009850D02*
X030968Y009877D01*
X030974Y009904D01*
X030983Y009930D01*
X030996Y009954D01*
X031012Y009977D01*
X031031Y009996D01*
X031053Y010013D01*
X031077Y010027D01*
X031102Y010037D01*
X031129Y010044D01*
X031156Y010047D01*
X031184Y010046D01*
X031211Y010041D01*
X031237Y010033D01*
X031261Y010021D01*
X031284Y010005D01*
X031305Y009987D01*
X031322Y009966D01*
X031337Y009942D01*
X031348Y009917D01*
X031356Y009891D01*
X031360Y009864D01*
X031360Y009836D01*
X031356Y009809D01*
X031348Y009783D01*
X031337Y009758D01*
X031322Y009734D01*
X031305Y009713D01*
X031284Y009695D01*
X031262Y009679D01*
X031237Y009667D01*
X031211Y009659D01*
X031184Y009654D01*
X031156Y009653D01*
X031129Y009656D01*
X031102Y009663D01*
X031077Y009673D01*
X031053Y009687D01*
X031031Y009704D01*
X031012Y009723D01*
X030996Y009746D01*
X030983Y009770D01*
X030974Y009796D01*
X030968Y009823D01*
X030966Y009850D01*
X030966Y008511D02*
X030968Y008538D01*
X030974Y008565D01*
X030983Y008591D01*
X030996Y008615D01*
X031012Y008638D01*
X031031Y008657D01*
X031053Y008674D01*
X031077Y008688D01*
X031102Y008698D01*
X031129Y008705D01*
X031156Y008708D01*
X031184Y008707D01*
X031211Y008702D01*
X031237Y008694D01*
X031261Y008682D01*
X031284Y008666D01*
X031305Y008648D01*
X031322Y008627D01*
X031337Y008603D01*
X031348Y008578D01*
X031356Y008552D01*
X031360Y008525D01*
X031360Y008497D01*
X031356Y008470D01*
X031348Y008444D01*
X031337Y008419D01*
X031322Y008395D01*
X031305Y008374D01*
X031284Y008356D01*
X031262Y008340D01*
X031237Y008328D01*
X031211Y008320D01*
X031184Y008315D01*
X031156Y008314D01*
X031129Y008317D01*
X031102Y008324D01*
X031077Y008334D01*
X031053Y008348D01*
X031031Y008365D01*
X031012Y008384D01*
X030996Y008407D01*
X030983Y008431D01*
X030974Y008457D01*
X030968Y008484D01*
X030966Y008511D01*
D11*
X025781Y011533D02*
X024946Y011533D01*
X024546Y011533D01*
X023710Y011533D01*
X023710Y013631D01*
X025781Y013631D01*
X025781Y011533D01*
X018322Y011702D02*
X015563Y011702D01*
X015563Y009082D01*
X015702Y008943D01*
X018322Y008943D01*
X018322Y011702D01*
X015722Y009242D02*
X015724Y009265D01*
X015730Y009288D01*
X015739Y009309D01*
X015752Y009329D01*
X015768Y009346D01*
X015786Y009360D01*
X015806Y009371D01*
X015828Y009379D01*
X015851Y009383D01*
X015875Y009383D01*
X015898Y009379D01*
X015920Y009371D01*
X015940Y009360D01*
X015958Y009346D01*
X015974Y009329D01*
X015987Y009309D01*
X015996Y009288D01*
X016002Y009265D01*
X016004Y009242D01*
X016002Y009219D01*
X015996Y009196D01*
X015987Y009175D01*
X015974Y009155D01*
X015958Y009138D01*
X015940Y009124D01*
X015920Y009113D01*
X015898Y009105D01*
X015875Y009101D01*
X015851Y009101D01*
X015828Y009105D01*
X015806Y009113D01*
X015786Y009124D01*
X015768Y009138D01*
X015752Y009155D01*
X015739Y009175D01*
X015730Y009196D01*
X015724Y009219D01*
X015722Y009242D01*
X005369Y007224D02*
X005369Y006586D01*
X005331Y006586D01*
X005014Y006586D02*
X004977Y006586D01*
X004640Y006586D02*
X004603Y006586D01*
X004286Y006586D02*
X004249Y006586D01*
X004249Y007224D01*
X004286Y007224D01*
X004603Y007224D02*
X004640Y007224D01*
X004977Y007224D02*
X005014Y007224D01*
X005331Y007224D02*
X005369Y007224D01*
D12*
X005703Y007693D02*
X005626Y007770D01*
X005626Y007923D01*
X005703Y008000D01*
X006010Y008000D02*
X006087Y007923D01*
X006087Y007770D01*
X006010Y007693D01*
X005703Y007693D01*
X006405Y007769D02*
X006865Y007769D01*
X006865Y007999D01*
X006789Y008076D01*
X006635Y008076D01*
X006559Y007999D01*
X006559Y007769D01*
X006559Y007922D02*
X006405Y008076D01*
X006482Y008229D02*
X006405Y008306D01*
X006405Y008459D01*
X006482Y008536D01*
X006559Y008536D01*
X006635Y008459D01*
X006635Y008229D01*
X006482Y008229D01*
X006635Y008229D02*
X006789Y008383D01*
X006865Y008536D01*
X007177Y008408D02*
X007177Y008255D01*
X007253Y008178D01*
X007407Y008178D02*
X007484Y008332D01*
X007484Y008408D01*
X007407Y008485D01*
X007253Y008485D01*
X007177Y008408D01*
X007407Y008178D02*
X007637Y008178D01*
X007637Y008485D01*
X007917Y008469D02*
X007994Y008469D01*
X008301Y008776D01*
X008377Y008776D01*
X008377Y008469D01*
X008301Y008316D02*
X008147Y008316D01*
X008070Y008239D01*
X008070Y008009D01*
X007917Y008009D02*
X008377Y008009D01*
X008377Y008239D01*
X008301Y008316D01*
X008070Y008163D02*
X007917Y008316D01*
X007560Y008025D02*
X007407Y008025D01*
X007330Y007948D01*
X007330Y007718D01*
X007330Y007871D02*
X007177Y008025D01*
X007560Y008025D02*
X007637Y007948D01*
X007637Y007718D01*
X007177Y007718D01*
X006087Y008230D02*
X006010Y008154D01*
X006087Y008230D02*
X006087Y008384D01*
X006010Y008461D01*
X005933Y008461D01*
X005626Y008154D01*
X005626Y008461D01*
X005703Y008614D02*
X005626Y008691D01*
X005626Y008844D01*
X005703Y008921D01*
X005780Y008921D01*
X005856Y008844D01*
X005856Y008767D01*
X005856Y008844D02*
X005933Y008921D01*
X006010Y008921D01*
X006087Y008844D01*
X006087Y008691D01*
X006010Y008614D01*
X005206Y008468D02*
X005129Y008391D01*
X004975Y008391D01*
X004899Y008468D01*
X004745Y008391D02*
X004438Y008391D01*
X004285Y008468D02*
X004208Y008391D01*
X004055Y008391D01*
X003978Y008468D01*
X003978Y008775D01*
X004285Y008468D01*
X004285Y008775D01*
X004208Y008852D01*
X004055Y008852D01*
X003978Y008775D01*
X004438Y008775D02*
X004438Y008698D01*
X004745Y008391D01*
X005206Y008468D02*
X005206Y008775D01*
X005129Y008852D01*
X004975Y008852D01*
X004899Y008775D01*
X004745Y008775D02*
X004669Y008852D01*
X004515Y008852D01*
X004438Y008775D01*
X004456Y009962D02*
X004303Y009962D01*
X004226Y010039D01*
X004226Y010346D01*
X004303Y010423D01*
X004456Y010423D01*
X004533Y010346D01*
X004533Y010269D01*
X004456Y010192D01*
X004226Y010192D01*
X004456Y009962D02*
X004533Y010039D01*
X004686Y009962D02*
X004993Y009962D01*
X004840Y009962D02*
X004840Y010423D01*
X004993Y010269D01*
X005147Y010346D02*
X005224Y010423D01*
X005377Y010423D01*
X005454Y010346D01*
X005454Y010039D01*
X005377Y009962D01*
X005224Y009962D01*
X005147Y010039D01*
X001779Y010727D02*
X001702Y010650D01*
X001395Y010650D01*
X001318Y010727D01*
X001318Y010880D01*
X001395Y010957D01*
X001318Y011110D02*
X001625Y011417D01*
X001702Y011417D01*
X001779Y011340D01*
X001779Y011187D01*
X001702Y011110D01*
X001702Y010957D02*
X001779Y010880D01*
X001779Y010727D01*
X001318Y011110D02*
X001318Y011417D01*
X001318Y011571D02*
X001318Y011878D01*
X001318Y011724D02*
X001779Y011724D01*
X001625Y011571D01*
X004159Y012405D02*
X004236Y012328D01*
X004389Y012328D01*
X004466Y012405D01*
X004466Y012482D01*
X004389Y012558D01*
X004236Y012558D01*
X004159Y012482D01*
X004159Y012405D01*
X004236Y012558D02*
X004159Y012635D01*
X004159Y012712D01*
X004236Y012789D01*
X004389Y012789D01*
X004466Y012712D01*
X004466Y012635D01*
X004389Y012558D01*
X004619Y012328D02*
X004926Y012328D01*
X004773Y012328D02*
X004773Y012789D01*
X004926Y012635D01*
X005080Y012712D02*
X005157Y012789D01*
X005310Y012789D01*
X005387Y012712D01*
X005387Y012405D01*
X005310Y012328D01*
X005157Y012328D01*
X005080Y012405D01*
X010937Y012433D02*
X011397Y012433D01*
X011243Y012280D01*
X011320Y012126D02*
X011397Y012049D01*
X011397Y011896D01*
X011320Y011819D01*
X011013Y011819D01*
X010937Y011896D01*
X010937Y012049D01*
X011013Y012126D01*
X010937Y012280D02*
X010937Y012586D01*
X010937Y012740D02*
X011243Y013047D01*
X011320Y013047D01*
X011397Y012970D01*
X011397Y012817D01*
X011320Y012740D01*
X010937Y012740D02*
X010937Y013047D01*
X012862Y011763D02*
X012862Y011456D01*
X012862Y011303D02*
X012862Y010996D01*
X012862Y011150D02*
X013322Y011150D01*
X013169Y010996D01*
X013245Y010843D02*
X013322Y010766D01*
X013322Y010612D01*
X013245Y010536D01*
X012938Y010536D01*
X012862Y010612D01*
X012862Y010766D01*
X012938Y010843D01*
X012482Y010868D02*
X012252Y010868D01*
X012175Y010945D01*
X012175Y011099D01*
X012252Y011175D01*
X012482Y011175D01*
X012482Y010715D01*
X012329Y010868D02*
X012175Y010715D01*
X012022Y010715D02*
X011715Y010715D01*
X011562Y010715D02*
X011255Y010715D01*
X011408Y010715D02*
X011408Y011175D01*
X011562Y011022D01*
X011869Y011175D02*
X011869Y010715D01*
X012022Y011022D02*
X011869Y011175D01*
X012862Y011610D02*
X013322Y011610D01*
X013169Y011456D01*
X018109Y013260D02*
X018186Y013183D01*
X018339Y013183D01*
X018416Y013260D01*
X018569Y013183D02*
X018876Y013183D01*
X018723Y013183D02*
X018723Y013644D01*
X018876Y013490D01*
X019030Y013414D02*
X019106Y013337D01*
X019337Y013337D01*
X019457Y013389D02*
X019457Y013696D01*
X019337Y013644D02*
X019106Y013644D01*
X019030Y013567D01*
X019030Y013414D01*
X019183Y013337D02*
X019030Y013183D01*
X019337Y013183D02*
X019337Y013644D01*
X019457Y013542D02*
X019917Y013542D01*
X019764Y013389D01*
X019841Y013235D02*
X019687Y013235D01*
X019610Y013158D01*
X019610Y012928D01*
X019457Y012928D02*
X019917Y012928D01*
X019917Y013158D01*
X019841Y013235D01*
X019610Y013082D02*
X019457Y013235D01*
X018416Y013567D02*
X018339Y013644D01*
X018186Y013644D01*
X018109Y013567D01*
X018109Y013490D01*
X018186Y013414D01*
X018109Y013337D01*
X018109Y013260D01*
X018186Y013414D02*
X018262Y013414D01*
X019687Y013849D02*
X019687Y014156D01*
X019457Y014079D02*
X019917Y014079D01*
X019687Y013849D01*
X019658Y011867D02*
X019658Y011407D01*
X019811Y011407D02*
X019504Y011407D01*
X019351Y011484D02*
X019351Y011560D01*
X019274Y011637D01*
X019120Y011637D01*
X019044Y011560D01*
X019044Y011484D01*
X019120Y011407D01*
X019274Y011407D01*
X019351Y011484D01*
X019274Y011637D02*
X019351Y011714D01*
X019351Y011791D01*
X019274Y011867D01*
X019120Y011867D01*
X019044Y011791D01*
X019044Y011714D01*
X019120Y011637D01*
X019658Y011867D02*
X019811Y011714D01*
X019964Y011791D02*
X019964Y011637D01*
X020041Y011560D01*
X020271Y011560D01*
X020118Y011560D02*
X019964Y011407D01*
X020271Y011407D02*
X020271Y011867D01*
X020041Y011867D01*
X019964Y011791D01*
X022697Y011209D02*
X022697Y011056D01*
X022774Y010979D01*
X022927Y011056D02*
X022927Y011286D01*
X022774Y011286D02*
X023081Y011286D01*
X023158Y011209D01*
X023158Y011056D01*
X023081Y010979D01*
X023004Y010979D01*
X022927Y011056D01*
X022697Y011209D02*
X022774Y011286D01*
X022697Y010826D02*
X022697Y010519D01*
X022697Y010365D02*
X022851Y010212D01*
X022851Y010288D02*
X022851Y010058D01*
X022697Y010058D02*
X023158Y010058D01*
X023158Y010288D01*
X023081Y010365D01*
X022927Y010365D01*
X022851Y010288D01*
X023004Y010519D02*
X023158Y010672D01*
X022697Y010672D01*
X021618Y010655D02*
X021388Y010655D01*
X021311Y010732D01*
X021311Y010885D01*
X021388Y010962D01*
X021618Y010962D01*
X021618Y010501D01*
X021464Y010655D02*
X021311Y010501D01*
X021157Y010501D02*
X020851Y010808D01*
X020851Y010885D01*
X020927Y010962D01*
X021081Y010962D01*
X021157Y010885D01*
X020697Y010885D02*
X020620Y010962D01*
X020467Y010962D01*
X020390Y010885D01*
X020697Y010578D01*
X020620Y010501D01*
X020467Y010501D01*
X020390Y010578D01*
X020390Y010885D01*
X020697Y010885D02*
X020697Y010578D01*
X020851Y010501D02*
X021157Y010501D01*
X022324Y008902D02*
X022017Y008595D01*
X021940Y008595D01*
X022401Y008595D02*
X022401Y008902D01*
X022324Y008902D01*
X022324Y008442D02*
X022401Y008365D01*
X022401Y008212D01*
X022324Y008135D01*
X022324Y007982D02*
X022171Y007982D01*
X022094Y007905D01*
X022094Y007675D01*
X022094Y007828D02*
X021940Y007982D01*
X021940Y008135D02*
X022247Y008442D01*
X022324Y008442D01*
X021940Y008442D02*
X021940Y008135D01*
X022324Y007982D02*
X022401Y007905D01*
X022401Y007675D01*
X021940Y007675D01*
X020257Y008299D02*
X020180Y008223D01*
X020027Y008223D01*
X019950Y008299D01*
X019796Y008223D02*
X019489Y008223D01*
X019643Y008223D02*
X019643Y008683D01*
X019796Y008530D01*
X019950Y008606D02*
X020027Y008683D01*
X020180Y008683D01*
X020257Y008606D01*
X020257Y008299D01*
X019336Y008299D02*
X019259Y008223D01*
X019106Y008223D01*
X019029Y008299D01*
X019029Y008376D01*
X019106Y008453D01*
X019183Y008453D01*
X019106Y008453D02*
X019029Y008530D01*
X019029Y008606D01*
X019106Y008683D01*
X019259Y008683D01*
X019336Y008606D01*
X017170Y008078D02*
X017017Y008078D01*
X017094Y008078D02*
X017094Y007618D01*
X017170Y007618D02*
X017017Y007618D01*
X016864Y007695D02*
X016787Y007618D01*
X016633Y007618D01*
X016557Y007695D01*
X016403Y007618D02*
X016096Y007618D01*
X016250Y007618D02*
X016250Y008078D01*
X016403Y007925D01*
X016557Y008002D02*
X016633Y008078D01*
X016787Y008078D01*
X016864Y008002D01*
X016864Y007695D01*
X015899Y007511D02*
X015899Y007204D01*
X015822Y007127D01*
X015669Y007127D01*
X015592Y007204D01*
X015438Y007358D02*
X015131Y007358D01*
X015208Y007588D02*
X015208Y007127D01*
X015438Y007358D02*
X015208Y007588D01*
X015592Y007511D02*
X015669Y007588D01*
X015822Y007588D01*
X015899Y007511D01*
X014802Y007699D02*
X014496Y007699D01*
X014649Y007699D02*
X014649Y007238D01*
X014112Y007238D02*
X014112Y007699D01*
X014342Y007468D01*
X014035Y007468D01*
X013253Y007536D02*
X013253Y007229D01*
X013176Y007152D01*
X013023Y007152D01*
X012946Y007229D01*
X012792Y007152D02*
X012486Y007459D01*
X012486Y007536D01*
X012562Y007612D01*
X012716Y007612D01*
X012792Y007536D01*
X012946Y007536D02*
X013023Y007612D01*
X013176Y007612D01*
X013253Y007536D01*
X012792Y007152D02*
X012486Y007152D01*
X011691Y007167D02*
X011461Y007167D01*
X011384Y007091D01*
X011384Y006937D01*
X011461Y006860D01*
X011691Y006860D01*
X011691Y006707D02*
X011691Y007167D01*
X011231Y007014D02*
X011077Y007167D01*
X011077Y006707D01*
X010924Y006707D02*
X011231Y006707D01*
X011384Y006707D02*
X011538Y006860D01*
X010370Y007334D02*
X009910Y007334D01*
X010063Y007334D02*
X010063Y007564D01*
X010140Y007641D01*
X010293Y007641D01*
X010370Y007564D01*
X010370Y007334D01*
X010063Y007487D02*
X009910Y007641D01*
X009910Y007794D02*
X009910Y008101D01*
X009910Y007948D02*
X010370Y007948D01*
X010217Y007794D01*
X010293Y008255D02*
X009986Y008255D01*
X010293Y008561D01*
X009986Y008561D01*
X009910Y008485D01*
X009910Y008331D01*
X009986Y008255D01*
X010293Y008255D02*
X010370Y008331D01*
X010370Y008485D01*
X010293Y008561D01*
X011713Y008513D02*
X011790Y008436D01*
X011713Y008513D02*
X011713Y008666D01*
X011790Y008743D01*
X012097Y008743D01*
X012173Y008666D01*
X012173Y008513D01*
X012097Y008436D01*
X012020Y008436D01*
X011943Y008513D01*
X011943Y008743D01*
X011943Y008282D02*
X011866Y008206D01*
X011866Y007976D01*
X011866Y008129D02*
X011713Y008282D01*
X011943Y008282D02*
X012097Y008282D01*
X012173Y008206D01*
X012173Y007976D01*
X011713Y007976D01*
X014067Y009059D02*
X014143Y008982D01*
X014297Y008982D01*
X014374Y009059D01*
X014220Y009212D02*
X014143Y009212D01*
X014067Y009136D01*
X014067Y009059D01*
X014143Y009212D02*
X014067Y009289D01*
X014067Y009366D01*
X014143Y009443D01*
X014297Y009443D01*
X014374Y009366D01*
X014527Y009443D02*
X014834Y009443D01*
X014680Y009443D02*
X014680Y008982D01*
X010432Y006282D02*
X010432Y006129D01*
X010356Y006052D01*
X010356Y005899D02*
X010202Y005899D01*
X010125Y005822D01*
X010125Y005592D01*
X009972Y005592D02*
X010432Y005592D01*
X010432Y005822D01*
X010356Y005899D01*
X010125Y005745D02*
X009972Y005899D01*
X009972Y006052D02*
X010279Y006359D01*
X010356Y006359D01*
X010432Y006282D01*
X009972Y006359D02*
X009972Y006052D01*
X011981Y005317D02*
X011981Y004857D01*
X011828Y004857D02*
X012135Y004857D01*
X012288Y004933D02*
X012365Y004857D01*
X012519Y004857D01*
X012595Y004933D01*
X012595Y005240D01*
X012519Y005317D01*
X012365Y005317D01*
X012288Y005240D01*
X012135Y005164D02*
X011981Y005317D01*
X013466Y005228D02*
X013466Y005151D01*
X013543Y005074D01*
X013466Y004997D01*
X013466Y004921D01*
X013543Y004844D01*
X013696Y004844D01*
X013773Y004921D01*
X013927Y004921D02*
X014003Y004844D01*
X014157Y004844D01*
X014233Y004921D01*
X014233Y005228D01*
X014157Y005304D01*
X014003Y005304D01*
X013927Y005228D01*
X013773Y005228D02*
X013696Y005304D01*
X013543Y005304D01*
X013466Y005228D01*
X013543Y005074D02*
X013620Y005074D01*
X009995Y005025D02*
X009688Y005025D01*
X009841Y005025D02*
X009841Y004565D01*
X009534Y004565D02*
X009228Y004565D01*
X009381Y004565D02*
X009381Y005025D01*
X009534Y004872D01*
X006731Y005092D02*
X006424Y005092D01*
X006578Y005092D02*
X006578Y004632D01*
X006271Y004632D02*
X005964Y004939D01*
X005964Y005015D01*
X006041Y005092D01*
X006194Y005092D01*
X006271Y005015D01*
X006271Y004632D02*
X005964Y004632D01*
X005664Y005443D02*
X005511Y005443D01*
X005587Y005443D02*
X005587Y005903D01*
X005511Y005903D02*
X005664Y005903D01*
X005357Y005826D02*
X005357Y005520D01*
X005280Y005443D01*
X005127Y005443D01*
X005050Y005520D01*
X004897Y005520D02*
X004820Y005443D01*
X004666Y005443D01*
X004590Y005520D01*
X004590Y005826D01*
X004666Y005903D01*
X004820Y005903D01*
X004897Y005826D01*
X004897Y005750D01*
X004820Y005673D01*
X004590Y005673D01*
X005050Y005826D02*
X005127Y005903D01*
X005280Y005903D01*
X005357Y005826D01*
X003704Y005759D02*
X003704Y005605D01*
X003627Y005529D01*
X003551Y005529D01*
X003474Y005605D01*
X003474Y005759D01*
X003397Y005835D01*
X003320Y005835D01*
X003244Y005759D01*
X003244Y005605D01*
X003320Y005529D01*
X003397Y005529D01*
X003474Y005605D01*
X003474Y005759D02*
X003551Y005835D01*
X003627Y005835D01*
X003704Y005759D01*
X003627Y005375D02*
X003704Y005298D01*
X003704Y005145D01*
X003627Y005068D01*
X003627Y004915D02*
X003474Y004915D01*
X003397Y004838D01*
X003397Y004608D01*
X003397Y004761D02*
X003244Y004915D01*
X003244Y005068D02*
X003551Y005375D01*
X003627Y005375D01*
X003244Y005375D02*
X003244Y005068D01*
X003627Y004915D02*
X003704Y004838D01*
X003704Y004608D01*
X003244Y004608D01*
X026771Y010673D02*
X026848Y010596D01*
X027001Y010596D01*
X027078Y010673D01*
X027078Y010827D02*
X026924Y010903D01*
X026848Y010903D01*
X026771Y010827D01*
X026771Y010673D01*
X027078Y010827D02*
X027078Y011057D01*
X026771Y011057D01*
X027231Y011057D02*
X027538Y011057D01*
X027385Y011057D02*
X027385Y010596D01*
X029689Y010629D02*
X030150Y010629D01*
X030150Y010859D01*
X030073Y010936D01*
X029919Y010936D01*
X029843Y010859D01*
X029843Y010629D01*
X029843Y010783D02*
X029689Y010936D01*
X029689Y011089D02*
X029689Y011396D01*
X029689Y011243D02*
X030150Y011243D01*
X029996Y011089D01*
X029919Y011550D02*
X029919Y011780D01*
X029843Y011857D01*
X029766Y011857D01*
X029689Y011780D01*
X029689Y011627D01*
X029766Y011550D01*
X029919Y011550D01*
X030073Y011703D01*
X030150Y011857D01*
X030555Y012263D02*
X031016Y012263D01*
X031016Y012493D01*
X030939Y012570D01*
X030786Y012570D01*
X030709Y012493D01*
X030709Y012263D01*
X030709Y012416D02*
X030555Y012570D01*
X030555Y012723D02*
X030862Y013030D01*
X030939Y013030D01*
X031016Y012954D01*
X031016Y012800D01*
X030939Y012723D01*
X030555Y012723D02*
X030555Y013030D01*
X030555Y013184D02*
X030555Y013491D01*
X030555Y013337D02*
X031016Y013337D01*
X030862Y013184D01*
X036259Y010941D02*
X036335Y011018D01*
X036489Y011018D01*
X036566Y010941D01*
X036719Y010941D02*
X036796Y011018D01*
X036949Y011018D01*
X037026Y010941D01*
X037179Y010941D02*
X037179Y010788D01*
X037256Y010711D01*
X037486Y010711D01*
X037333Y010711D02*
X037179Y010557D01*
X037026Y010557D02*
X036719Y010864D01*
X036719Y010941D01*
X036566Y010557D02*
X036259Y010864D01*
X036259Y010941D01*
X036259Y010557D02*
X036566Y010557D01*
X036719Y010557D02*
X037026Y010557D01*
X037486Y010557D02*
X037486Y011018D01*
X037256Y011018D01*
X037179Y010941D01*
X035835Y010167D02*
X035758Y010244D01*
X035451Y009937D01*
X035374Y010014D01*
X035374Y010167D01*
X035451Y010244D01*
X035758Y010244D01*
X035835Y010167D02*
X035835Y010014D01*
X035758Y009937D01*
X035451Y009937D01*
X035374Y009783D02*
X035374Y009476D01*
X035374Y009630D02*
X035835Y009630D01*
X035681Y009476D01*
X035758Y009323D02*
X035835Y009246D01*
X035835Y009093D01*
X035758Y009016D01*
X035451Y009016D01*
X035374Y009093D01*
X035374Y009246D01*
X035451Y009323D01*
X039508Y008774D02*
X039508Y008620D01*
X039585Y008543D01*
X039585Y008390D02*
X039508Y008313D01*
X039508Y008160D01*
X039585Y008083D01*
X039892Y008083D01*
X039969Y008160D01*
X039969Y008313D01*
X039892Y008390D01*
X039969Y008543D02*
X039738Y008543D01*
X039815Y008697D01*
X039815Y008774D01*
X039738Y008850D01*
X039585Y008850D01*
X039508Y008774D01*
X039969Y008850D02*
X039969Y008543D01*
X039968Y006136D02*
X040121Y006136D01*
X040198Y006059D01*
X040198Y005752D01*
X040121Y005676D01*
X039968Y005676D01*
X039891Y005752D01*
X039737Y005752D02*
X039737Y005906D01*
X039507Y005906D01*
X039430Y005829D01*
X039430Y005752D01*
X039507Y005676D01*
X039661Y005676D01*
X039737Y005752D01*
X039737Y005906D02*
X039584Y006059D01*
X039430Y006136D01*
X039891Y006059D02*
X039968Y006136D01*
D13*
X023850Y011533D02*
X023850Y013582D01*
D14*
X023083Y011401D02*
X023085Y011419D01*
X023091Y011437D01*
X023100Y011453D01*
X023112Y011466D01*
X023127Y011477D01*
X023144Y011485D01*
X023162Y011489D01*
X023180Y011489D01*
X023198Y011485D01*
X023215Y011477D01*
X023230Y011466D01*
X023242Y011453D01*
X023251Y011437D01*
X023257Y011419D01*
X023259Y011401D01*
X023257Y011383D01*
X023251Y011365D01*
X023242Y011349D01*
X023230Y011336D01*
X023215Y011325D01*
X023198Y011317D01*
X023180Y011313D01*
X023162Y011313D01*
X023144Y011317D01*
X023127Y011325D01*
X023112Y011336D01*
X023100Y011349D01*
X023091Y011365D01*
X023085Y011383D01*
X023083Y011401D01*
X024570Y011371D02*
X024570Y011296D01*
X024870Y010995D01*
X024870Y010920D01*
X025030Y010995D02*
X025105Y010920D01*
X025255Y010920D01*
X025330Y010995D01*
X025330Y011296D01*
X025255Y011371D01*
X025105Y011371D01*
X025030Y011296D01*
X024870Y011371D02*
X024570Y011371D01*
X025487Y011371D02*
X025637Y011371D01*
X025562Y011371D02*
X025562Y010920D01*
X025637Y010920D02*
X025487Y010920D01*
X005402Y006393D02*
X005404Y006408D01*
X005409Y006422D01*
X005418Y006434D01*
X005430Y006444D01*
X005443Y006450D01*
X005458Y006453D01*
X005473Y006452D01*
X005488Y006447D01*
X005500Y006439D01*
X005511Y006428D01*
X005518Y006415D01*
X005522Y006401D01*
X005522Y006385D01*
X005518Y006371D01*
X005511Y006358D01*
X005500Y006347D01*
X005488Y006339D01*
X005473Y006334D01*
X005458Y006333D01*
X005443Y006336D01*
X005430Y006342D01*
X005418Y006352D01*
X005409Y006364D01*
X005404Y006378D01*
X005402Y006393D01*
D15*
X027081Y012394D02*
X027081Y012463D01*
X027149Y012531D01*
X027354Y012531D01*
X027354Y012394D01*
X027286Y012326D01*
X027149Y012326D01*
X027081Y012394D01*
X027354Y012531D02*
X027218Y012668D01*
X027081Y012736D01*
X027541Y012736D02*
X027815Y012736D01*
X027678Y012736D02*
X027678Y012326D01*
M02*
