G75*
G70*
%OFA0B0*%
%FSLAX24Y24*%
%IPPOS*%
%LPD*%
%AMOC8*
5,1,8,0,0,1.08239X$1,22.5*
%
%ADD10C,0.0000*%
%ADD11R,0.0297X0.0533*%
%ADD12R,0.0533X0.0297*%
%ADD13R,0.0198X0.0710*%
%ADD14R,0.0671X0.0592*%
%ADD15R,0.0880X0.0340*%
%ADD16C,0.0600*%
%ADD17R,0.0474X0.0474*%
%ADD18C,0.0674*%
%ADD19R,0.0674X0.0674*%
%ADD20OC8,0.1080*%
%ADD21C,0.0109*%
%ADD22R,0.0787X0.0787*%
%ADD23R,0.0595X0.0595*%
%ADD24R,0.0592X0.0671*%
%ADD25OC8,0.0600*%
%ADD26C,0.0634*%
%ADD27R,0.0740X0.0740*%
%ADD28C,0.0740*%
%ADD29C,0.0477*%
%ADD30C,0.0840*%
%ADD31C,0.0474*%
%ADD32R,0.2521X0.2363*%
%ADD33R,0.1261X0.0710*%
%ADD34R,0.0671X0.0867*%
%ADD35R,0.1576X0.0867*%
%ADD36C,0.0680*%
%ADD37R,0.0700X0.0700*%
%ADD38C,0.0437*%
%ADD39C,0.0516*%
%ADD40C,0.0730*%
D10*
X000139Y003669D02*
X000139Y014693D01*
X042659Y014693D01*
X042659Y003669D01*
X000139Y003669D01*
X026005Y008511D02*
X026007Y008538D01*
X026013Y008565D01*
X026022Y008591D01*
X026035Y008615D01*
X026051Y008638D01*
X026070Y008657D01*
X026092Y008674D01*
X026116Y008688D01*
X026141Y008698D01*
X026168Y008705D01*
X026195Y008708D01*
X026223Y008707D01*
X026250Y008702D01*
X026276Y008694D01*
X026300Y008682D01*
X026323Y008666D01*
X026344Y008648D01*
X026361Y008627D01*
X026376Y008603D01*
X026387Y008578D01*
X026395Y008552D01*
X026399Y008525D01*
X026399Y008497D01*
X026395Y008470D01*
X026387Y008444D01*
X026376Y008419D01*
X026361Y008395D01*
X026344Y008374D01*
X026323Y008356D01*
X026301Y008340D01*
X026276Y008328D01*
X026250Y008320D01*
X026223Y008315D01*
X026195Y008314D01*
X026168Y008317D01*
X026141Y008324D01*
X026116Y008334D01*
X026092Y008348D01*
X026070Y008365D01*
X026051Y008384D01*
X026035Y008407D01*
X026022Y008431D01*
X026013Y008457D01*
X026007Y008484D01*
X026005Y008511D01*
X026005Y009850D02*
X026007Y009877D01*
X026013Y009904D01*
X026022Y009930D01*
X026035Y009954D01*
X026051Y009977D01*
X026070Y009996D01*
X026092Y010013D01*
X026116Y010027D01*
X026141Y010037D01*
X026168Y010044D01*
X026195Y010047D01*
X026223Y010046D01*
X026250Y010041D01*
X026276Y010033D01*
X026300Y010021D01*
X026323Y010005D01*
X026344Y009987D01*
X026361Y009966D01*
X026376Y009942D01*
X026387Y009917D01*
X026395Y009891D01*
X026399Y009864D01*
X026399Y009836D01*
X026395Y009809D01*
X026387Y009783D01*
X026376Y009758D01*
X026361Y009734D01*
X026344Y009713D01*
X026323Y009695D01*
X026301Y009679D01*
X026276Y009667D01*
X026250Y009659D01*
X026223Y009654D01*
X026195Y009653D01*
X026168Y009656D01*
X026141Y009663D01*
X026116Y009673D01*
X026092Y009687D01*
X026070Y009704D01*
X026051Y009723D01*
X026035Y009746D01*
X026022Y009770D01*
X026013Y009796D01*
X026007Y009823D01*
X026005Y009850D01*
X030966Y009850D02*
X030968Y009877D01*
X030974Y009904D01*
X030983Y009930D01*
X030996Y009954D01*
X031012Y009977D01*
X031031Y009996D01*
X031053Y010013D01*
X031077Y010027D01*
X031102Y010037D01*
X031129Y010044D01*
X031156Y010047D01*
X031184Y010046D01*
X031211Y010041D01*
X031237Y010033D01*
X031261Y010021D01*
X031284Y010005D01*
X031305Y009987D01*
X031322Y009966D01*
X031337Y009942D01*
X031348Y009917D01*
X031356Y009891D01*
X031360Y009864D01*
X031360Y009836D01*
X031356Y009809D01*
X031348Y009783D01*
X031337Y009758D01*
X031322Y009734D01*
X031305Y009713D01*
X031284Y009695D01*
X031262Y009679D01*
X031237Y009667D01*
X031211Y009659D01*
X031184Y009654D01*
X031156Y009653D01*
X031129Y009656D01*
X031102Y009663D01*
X031077Y009673D01*
X031053Y009687D01*
X031031Y009704D01*
X031012Y009723D01*
X030996Y009746D01*
X030983Y009770D01*
X030974Y009796D01*
X030968Y009823D01*
X030966Y009850D01*
X030966Y008511D02*
X030968Y008538D01*
X030974Y008565D01*
X030983Y008591D01*
X030996Y008615D01*
X031012Y008638D01*
X031031Y008657D01*
X031053Y008674D01*
X031077Y008688D01*
X031102Y008698D01*
X031129Y008705D01*
X031156Y008708D01*
X031184Y008707D01*
X031211Y008702D01*
X031237Y008694D01*
X031261Y008682D01*
X031284Y008666D01*
X031305Y008648D01*
X031322Y008627D01*
X031337Y008603D01*
X031348Y008578D01*
X031356Y008552D01*
X031360Y008525D01*
X031360Y008497D01*
X031356Y008470D01*
X031348Y008444D01*
X031337Y008419D01*
X031322Y008395D01*
X031305Y008374D01*
X031284Y008356D01*
X031262Y008340D01*
X031237Y008328D01*
X031211Y008320D01*
X031184Y008315D01*
X031156Y008314D01*
X031129Y008317D01*
X031102Y008324D01*
X031077Y008334D01*
X031053Y008348D01*
X031031Y008365D01*
X031012Y008384D01*
X030996Y008407D01*
X030983Y008431D01*
X030974Y008457D01*
X030968Y008484D01*
X030966Y008511D01*
D11*
X014509Y006858D03*
X014194Y006858D03*
X013880Y006858D03*
X013565Y006858D03*
X013250Y006858D03*
X012935Y006858D03*
X012935Y005992D03*
X013250Y005992D03*
X013565Y005992D03*
X013880Y005992D03*
X014194Y005992D03*
X014509Y005992D03*
D12*
X014549Y006425D03*
X012895Y006425D03*
D13*
X011350Y006346D03*
X011094Y006346D03*
X010838Y006346D03*
X010582Y006346D03*
X010582Y007685D03*
X010838Y007685D03*
X011094Y007685D03*
X011350Y007685D03*
D14*
X012069Y008090D03*
X012868Y008090D03*
X013667Y008090D03*
X015494Y008295D03*
X016297Y008500D03*
X015494Y008964D03*
X013667Y008759D03*
X012868Y008759D03*
X012069Y008759D03*
X015159Y009881D03*
X015159Y010551D03*
X016297Y007830D03*
X017659Y006980D03*
X017659Y006311D03*
X016443Y006232D03*
X016443Y005563D03*
X024785Y006153D03*
X025584Y006677D03*
X024785Y006822D03*
X025584Y007346D03*
X036486Y007665D03*
X036486Y008334D03*
X036486Y006756D03*
X036486Y006086D03*
X024856Y011405D03*
X024856Y012074D03*
X027415Y012263D03*
X027415Y011594D03*
X003880Y007153D03*
X003880Y006484D03*
D15*
X037445Y006446D03*
X037445Y005946D03*
X037445Y005446D03*
X037445Y004946D03*
X039865Y004946D03*
X039865Y005446D03*
X039865Y005946D03*
X039865Y006446D03*
X039865Y006946D03*
X039865Y007446D03*
X039865Y007946D03*
X039865Y008446D03*
X037445Y008446D03*
X037445Y007946D03*
X037445Y007446D03*
X037445Y006946D03*
D16*
X039509Y009568D03*
X014672Y012133D03*
X012772Y012133D03*
D17*
X018876Y011063D03*
X018876Y010275D03*
D18*
X033301Y010181D03*
X034301Y010181D03*
X034301Y011181D03*
X034301Y009181D03*
X033301Y009181D03*
X033301Y008181D03*
X034301Y008181D03*
X034301Y007181D03*
X033301Y007181D03*
D19*
X033301Y011181D03*
D20*
X041687Y010165D03*
X041675Y008590D03*
X041675Y007015D03*
X041675Y005441D03*
X009982Y013315D03*
X008604Y013315D03*
X007226Y013315D03*
X001517Y009574D03*
D21*
X018660Y006513D02*
X018660Y006403D01*
X018492Y006403D01*
X018492Y006513D01*
X018660Y006513D01*
X018660Y006511D02*
X018492Y006511D01*
X018660Y006257D02*
X018660Y006147D01*
X018492Y006147D01*
X018492Y006257D01*
X018660Y006257D01*
X018660Y006255D02*
X018492Y006255D01*
X018660Y006001D02*
X018660Y005891D01*
X018492Y005891D01*
X018492Y006001D01*
X018660Y006001D01*
X018660Y005999D02*
X018492Y005999D01*
X018660Y005746D02*
X018660Y005636D01*
X018492Y005636D01*
X018492Y005746D01*
X018660Y005746D01*
X018660Y005744D02*
X018492Y005744D01*
X018826Y005469D02*
X018936Y005469D01*
X018936Y005301D01*
X018826Y005301D01*
X018826Y005469D01*
X018826Y005409D02*
X018936Y005409D01*
X019082Y005469D02*
X019192Y005469D01*
X019192Y005301D01*
X019082Y005301D01*
X019082Y005469D01*
X019082Y005409D02*
X019192Y005409D01*
X019338Y005469D02*
X019448Y005469D01*
X019448Y005301D01*
X019338Y005301D01*
X019338Y005469D01*
X019338Y005409D02*
X019448Y005409D01*
X019594Y005469D02*
X019704Y005469D01*
X019704Y005301D01*
X019594Y005301D01*
X019594Y005469D01*
X019594Y005409D02*
X019704Y005409D01*
X020038Y005636D02*
X020038Y005746D01*
X020038Y005636D02*
X019870Y005636D01*
X019870Y005746D01*
X020038Y005746D01*
X020038Y005744D02*
X019870Y005744D01*
X020038Y005891D02*
X020038Y006001D01*
X020038Y005891D02*
X019870Y005891D01*
X019870Y006001D01*
X020038Y006001D01*
X020038Y005999D02*
X019870Y005999D01*
X020038Y006147D02*
X020038Y006257D01*
X020038Y006147D02*
X019870Y006147D01*
X019870Y006257D01*
X020038Y006257D01*
X020038Y006255D02*
X019870Y006255D01*
X020038Y006403D02*
X020038Y006513D01*
X020038Y006403D02*
X019870Y006403D01*
X019870Y006513D01*
X020038Y006513D01*
X020038Y006511D02*
X019870Y006511D01*
X019704Y006847D02*
X019594Y006847D01*
X019704Y006847D02*
X019704Y006679D01*
X019594Y006679D01*
X019594Y006847D01*
X019594Y006787D02*
X019704Y006787D01*
X019448Y006847D02*
X019338Y006847D01*
X019448Y006847D02*
X019448Y006679D01*
X019338Y006679D01*
X019338Y006847D01*
X019338Y006787D02*
X019448Y006787D01*
X019192Y006847D02*
X019082Y006847D01*
X019192Y006847D02*
X019192Y006679D01*
X019082Y006679D01*
X019082Y006847D01*
X019082Y006787D02*
X019192Y006787D01*
X018936Y006847D02*
X018826Y006847D01*
X018936Y006847D02*
X018936Y006679D01*
X018826Y006679D01*
X018826Y006847D01*
X018826Y006787D02*
X018936Y006787D01*
D22*
X019265Y006074D03*
D23*
X019265Y006074D03*
D24*
X021124Y007074D03*
X021793Y007074D03*
X022702Y006878D03*
X023372Y006878D03*
X019383Y007681D03*
X018714Y007681D03*
X022651Y011362D03*
X023320Y011362D03*
X004462Y005232D03*
X003793Y005232D03*
D25*
X008801Y008181D03*
X007801Y009181D03*
X008801Y010181D03*
X036360Y009346D03*
X037738Y009346D03*
X039509Y010368D03*
X037738Y013346D03*
X036360Y013346D03*
D26*
X040020Y012724D02*
X040574Y012724D01*
X040574Y011937D02*
X040020Y011937D01*
X002779Y007212D02*
X002224Y007212D01*
X002224Y006425D02*
X002779Y006425D01*
X002779Y005637D02*
X002224Y005637D01*
D27*
X003242Y012378D03*
D28*
X003242Y011378D03*
X003242Y010378D03*
X003242Y009378D03*
X006242Y009378D03*
X006242Y010378D03*
X006242Y011378D03*
X006242Y012378D03*
D29*
X002062Y012478D02*
X001665Y012478D01*
X001665Y012970D02*
X002062Y012970D01*
D30*
X027502Y009181D03*
X028683Y009181D03*
X029864Y009181D03*
D31*
X031163Y008511D03*
X031163Y009850D03*
X026202Y009850D03*
X026202Y008511D03*
D32*
X030454Y006200D03*
D33*
X027628Y005303D03*
X027628Y007098D03*
D34*
X029131Y010941D03*
X030037Y010941D03*
X030943Y010941D03*
D35*
X030037Y013421D03*
D36*
X024455Y010071D02*
X023855Y010071D01*
X021306Y010071D02*
X020706Y010071D01*
X020706Y008291D02*
X021306Y008291D01*
X023855Y008291D02*
X024455Y008291D01*
D37*
X023037Y005834D03*
X021337Y005834D03*
X021337Y012527D03*
X023037Y012527D03*
D38*
X024155Y012724D03*
X024155Y012133D03*
X024155Y011543D03*
X026793Y011464D03*
X027305Y013118D03*
X027895Y013511D03*
X020021Y012724D03*
X019431Y012133D03*
X018919Y012133D03*
X018368Y012842D03*
X016675Y012842D03*
X016281Y013118D03*
X011124Y011582D03*
X009391Y012015D03*
X008880Y012133D03*
X008525Y011740D03*
X007029Y010952D03*
X007423Y009771D03*
X010415Y008826D03*
X011439Y008905D03*
X011754Y009417D03*
X012817Y009456D03*
X014509Y009771D03*
X016084Y009889D03*
X016084Y009378D03*
X017462Y009968D03*
X016084Y010401D03*
X017265Y010756D03*
X016872Y011149D03*
X016281Y011149D03*
X014509Y010756D03*
X011045Y010283D03*
X014903Y008590D03*
X014903Y008000D03*
X016675Y007015D03*
X015494Y006819D03*
X017069Y006622D03*
X015691Y005637D03*
X015297Y005244D03*
X011557Y005441D03*
X010966Y005441D03*
X010376Y005165D03*
X006320Y005913D03*
X005848Y005637D03*
X004076Y005834D03*
X009194Y006819D03*
X011439Y008393D03*
X017659Y007606D03*
X018643Y008315D03*
X018643Y008787D03*
X017974Y009299D03*
X019628Y010362D03*
X019431Y010913D03*
X020612Y007409D03*
X024194Y006582D03*
X024864Y007527D03*
X021911Y005165D03*
X032620Y007015D03*
X038328Y008196D03*
X038328Y008984D03*
X040691Y007803D03*
X038525Y006425D03*
X038919Y006031D03*
X038919Y005441D03*
X038919Y004850D03*
X032029Y010756D03*
X037935Y011937D03*
X004076Y007803D03*
X002305Y008000D03*
D39*
X008013Y009968D03*
X009588Y010165D03*
X008899Y009082D03*
X009588Y008000D03*
X009982Y006819D03*
X012935Y005244D03*
X014509Y005244D03*
X022974Y008590D03*
X022974Y009771D03*
X026124Y010756D03*
X030848Y011740D03*
X038525Y007409D03*
X026832Y006110D03*
X026714Y005441D03*
X025139Y005441D03*
D40*
X035376Y006819D03*
X031439Y013315D03*
M02*
